<svg xmlns="http://www.w3.org/2000/svg" width="1842" viewBox="0 0 1381.5 789" height="1052" version="1.0"><defs><clipPath id="a"><path d="M274 125.273h813.863V689H274zm0 0"/></clipPath><clipPath id="b"><path d="M549 754h264v34.855H549zm0 0"/></clipPath><clipPath id="c"><path d="M860 466.746h384V722H860zm0 0"/></clipPath><clipPath id="d"><path d="M802 714h500.793v74.855H802zm0 0"/></clipPath><clipPath id="e"><path d="M1017 495h43v4h-43zm0 0"/></clipPath><clipPath id="f"><path d="M1058.34 498.129h-39.219a1.576 1.576 0 01-1.582-1.563c0-.863.711-1.562 1.582-1.562h39.219c.87 0 1.582.7 1.582 1.562 0 .872-.711 1.563-1.582 1.563zm0 0"/></clipPath><clipPath id="h"><path d="M1017 503h27v4h-27zm0 0"/></clipPath><clipPath id="i"><path d="M1042.094 506.273h-22.973c-.871 0-1.582-.699-1.582-1.558 0-.863.711-1.563 1.582-1.563h22.973c.87 0 1.582.7 1.582 1.563 0 .86-.711 1.558-1.582 1.558zm0 0"/></clipPath><clipPath id="k"><path d="M1042 519h36v4h-36zm0 0"/></clipPath><clipPath id="l"><path d="M1075.957 522.559h-31.531c-.871 0-1.582-.7-1.582-1.559 0-.863.71-1.563 1.582-1.563h31.531c.871 0 1.582.7 1.582 1.563 0 .86-.71 1.559-1.582 1.559zm0 0"/></clipPath><clipPath id="n"><path d="M1028 543h18v4h-18zm0 0"/></clipPath><clipPath id="o"><path d="M1043.715 546.992h-13.305c-.87 0-1.582-.699-1.582-1.562 0-.86.711-1.559 1.582-1.559h13.305c.87 0 1.582.7 1.582 1.559 0 .863-.703 1.562-1.582 1.562zm0 0"/></clipPath><clipPath id="q"><path d="M1054 568h27v4h-27zm0 0"/></clipPath><clipPath id="r"><path d="M1078.988 571.426h-22.922a1.576 1.576 0 01-1.582-1.563c0-.86.711-1.562 1.582-1.562h22.922c.871 0 1.582.703 1.582 1.562 0 .86-.71 1.563-1.582 1.563zm0 0"/></clipPath><clipPath id="t"><path d="M1124 568h24v4h-24zm0 0"/></clipPath><clipPath id="u"><path d="M1146.086 571.426h-20.191a1.573 1.573 0 01-1.579-1.563c0-.86.707-1.562 1.579-1.562h20.19c.872 0 1.583.703 1.583 1.562 0 .86-.711 1.563-1.582 1.563zm0 0"/></clipPath><clipPath id="w"><path d="M1067 576h28v4h-28zm0 0"/></clipPath><clipPath id="x"><path d="M1093.203 579.563h-24.344c-.87 0-1.582-.7-1.582-1.563 0-.86.711-1.559 1.582-1.559h24.344c.871 0 1.582.7 1.582 1.559 0 .863-.71 1.563-1.582 1.563zm0 0"/></clipPath><clipPath id="z"><path d="M1054 592h28v4h-28zm0 0"/></clipPath><clipPath id="A"><path d="M1079.96 595.848h-24.343c-.87 0-1.582-.7-1.582-1.563 0-.86.711-1.558 1.582-1.558h24.344c.871 0 1.582.699 1.582 1.558 0 .863-.711 1.563-1.582 1.563zm0 0"/></clipPath><clipPath id="C"><path d="M1054 617h22v4h-22zm0 0"/></clipPath><clipPath id="D"><path d="M1074.035 620.281h-17.84a1.576 1.576 0 01-1.582-1.562c0-.86.711-1.563 1.582-1.563h17.84c.871 0 1.582.703 1.582 1.563s-.703 1.562-1.582 1.562zm0 0"/></clipPath><clipPath id="F"><path d="M1042 625h22v4h-22zm0 0"/></clipPath><clipPath id="G"><path d="M1062.102 628.418h-17.836c-.871 0-1.582-.7-1.582-1.563 0-.859.71-1.558 1.582-1.558h17.836c.87 0 1.582.7 1.582 1.558 0 .872-.7 1.563-1.582 1.563zm0 0"/></clipPath><clipPath id="I"><path d="M1042 633h22v4h-22zm0 0"/></clipPath><clipPath id="J"><path d="M1062.102 636.566h-17.836a1.576 1.576 0 01-1.582-1.562c0-.86.71-1.563 1.582-1.563h17.836c.87 0 1.582.704 1.582 1.563 0 .86-.7 1.562-1.582 1.562zm0 0"/></clipPath><clipPath id="L"><path d="M1107 633h27v4h-27zm0 0"/></clipPath><clipPath id="M"><path d="M1131.844 636.566h-22.274a1.576 1.576 0 01-1.582-1.562c0-.86.711-1.563 1.582-1.563h22.274c.87 0 1.578.704 1.578 1.563 0 .86-.7 1.562-1.578 1.562zm0 0"/></clipPath><clipPath id="O"><path d="M1042 609h35v4h-35zm0 0"/></clipPath><clipPath id="P"><path d="M1074.934 612.133h-30.66c-.872 0-1.583-.7-1.583-1.563 0-.86.711-1.558 1.582-1.558h30.66c.872 0 1.583.699 1.583 1.558 0 .864-.711 1.563-1.582 1.563zm0 0"/></clipPath><clipPath id="R"><path d="M1081 617h123v4h-123zm0 0"/></clipPath><clipPath id="S"><path d="M1201.941 620.281h-118.828a1.576 1.576 0 01-1.582-1.562c0-.86.711-1.563 1.582-1.563h118.828c.871 0 1.582.703 1.582 1.563s-.71 1.562-1.582 1.562zm0 0"/></clipPath><clipPath id="U"><path d="M1120 609h29v4h-29zm0 0"/></clipPath><clipPath id="V"><path d="M1146.746 612.133h-24.914c-.871 0-1.582-.7-1.582-1.563 0-.86.71-1.558 1.582-1.558h24.914c.871 0 1.582.699 1.582 1.558 0 .864-.71 1.563-1.582 1.563zm0 0"/></clipPath><clipPath id="X"><path d="M1042 600h19v4h-19zm0 0"/></clipPath><clipPath id="Y"><path d="M1059.14 603.996h-14.757a1.575 1.575 0 01-1.578-1.562c0-.86.71-1.563 1.578-1.563h14.758c.87 0 1.582.703 1.582 1.563 0 .859-.711 1.562-1.582 1.562zm0 0"/></clipPath><clipPath id="aa"><path d="M1066 584h38v4h-38zm0 0"/></clipPath><clipPath id="ab"><path d="M1102.152 587.71h-33.754a1.576 1.576 0 01-1.582-1.562c0-.859.711-1.562 1.582-1.562h33.754c.871 0 1.582.703 1.582 1.562 0 .86-.71 1.563-1.582 1.563zm0 0"/></clipPath><clipPath id="ad"><path d="M1145 576h30v4h-30zm0 0"/></clipPath><clipPath id="ae"><path d="M1173.383 579.563h-26.117c-.868 0-1.579-.7-1.579-1.563 0-.86.711-1.559 1.579-1.559h26.117c.87 0 1.582.7 1.582 1.559 0 .863-.711 1.563-1.582 1.563zm0 0"/></clipPath><clipPath id="ag"><path d="M1144 503h28v4h-28zm0 0"/></clipPath><clipPath id="ah"><path d="M1169.531 506.273h-22.972c-.871 0-1.582-.699-1.582-1.558 0-.863.71-1.563 1.582-1.563h22.972c.871 0 1.582.7 1.582 1.563 0 .86-.71 1.558-1.582 1.558zm0 0"/></clipPath><clipPath id="aj"><path d="M1029 511h27v4h-27zm0 0"/></clipPath><clipPath id="ak"><path d="M1054.324 514.422h-22.972c-.872 0-1.582-.7-1.582-1.563 0-.859.71-1.558 1.582-1.558h22.972c.871 0 1.582.699 1.582 1.558 0 .864-.699 1.563-1.582 1.563zm0 0"/></clipPath><clipPath id="am"><path d="M1043 527h27v4h-27zm0 0"/></clipPath><clipPath id="an"><path d="M1068.227 530.707h-22.973a1.57 1.57 0 01-1.578-1.562c0-.86.707-1.56 1.578-1.56h22.973c.87 0 1.582.7 1.582 1.56 0 .863-.711 1.562-1.582 1.562zm0 0"/></clipPath><clipPath id="ap"><path d="M1028 552h33v4h-33zm0 0"/></clipPath><clipPath id="aq"><path d="M1058.61 555.129h-28.47c-.87 0-1.581-.7-1.581-1.559 0-.863.71-1.562 1.582-1.562h28.468c.871 0 1.582.699 1.582 1.562 0 .86-.71 1.559-1.582 1.559zm0 0"/></clipPath><clipPath id="as"><path d="M1042 560h49v4h-49zm0 0"/></clipPath><clipPath id="at"><path d="M1089.23 563.277h-44.816a1.574 1.574 0 01-1.582-1.562c0-.86.711-1.559 1.582-1.559h44.816c.872 0 1.582.7 1.582 1.559 0 .863-.71 1.562-1.582 1.562zm0 0"/></clipPath><clipPath id="av"><path d="M1068 552h72v4h-72zm0 0"/></clipPath><clipPath id="aw"><path d="M1137.61 555.129h-67.75c-.872 0-1.583-.7-1.583-1.559 0-.863.711-1.562 1.582-1.562h67.75c.871 0 1.579.699 1.579 1.562a1.57 1.57 0 01-1.579 1.559zm0 0"/></clipPath><clipPath id="ay"><path d="M1125 584h79v4h-79zm0 0"/></clipPath><clipPath id="az"><path d="M1201.941 587.71h-75.195a1.576 1.576 0 01-1.582-1.562c0-.859.711-1.562 1.582-1.562h75.195c.871 0 1.582.703 1.582 1.562 0 .86-.71 1.563-1.582 1.563zm0 0"/></clipPath><clipPath id="aB"><path d="M1042 535h75v4h-75zm0 0"/></clipPath><clipPath id="aC"><path d="M1114.684 538.844h-70.258c-.871 0-1.582-.7-1.582-1.559 0-.863.71-1.562 1.582-1.562h70.258c.87 0 1.582.699 1.582 1.562 0 .86-.711 1.559-1.582 1.559zm0 0"/></clipPath><clipPath id="aE"><path d="M1054 658h27v4h-27zm0 0"/></clipPath><clipPath id="aF"><path d="M1078.988 661.55h-22.922a1.576 1.576 0 01-1.582-1.562c0-.863.711-1.562 1.582-1.562h22.922c.871 0 1.582.699 1.582 1.562 0 .86-.71 1.563-1.582 1.563zm0 0"/></clipPath><clipPath id="aH"><path d="M1124 658h24v4h-24zm0 0"/></clipPath><clipPath id="aI"><path d="M1146.086 661.55h-20.191a1.573 1.573 0 01-1.579-1.562 1.57 1.57 0 011.579-1.562h20.19c.872 0 1.583.699 1.583 1.562 0 .86-.711 1.563-1.582 1.563zm0 0"/></clipPath><clipPath id="aK"><path d="M1067 666h28v4h-28zm0 0"/></clipPath><clipPath id="aL"><path d="M1093.203 669.688h-24.344a1.576 1.576 0 01-1.582-1.563c0-.86.711-1.563 1.582-1.563h24.344c.871 0 1.582.704 1.582 1.563 0 .86-.71 1.563-1.582 1.563zm0 0"/></clipPath><clipPath id="aN"><path d="M1054 682h28v4h-28zm0 0"/></clipPath><clipPath id="aO"><path d="M1079.96 685.973h-24.343a1.576 1.576 0 01-1.582-1.563c0-.86.711-1.562 1.582-1.562h24.344c.871 0 1.582.703 1.582 1.562 0 .86-.711 1.563-1.582 1.563zm0 0"/></clipPath><clipPath id="aQ"><path d="M1042 690h19v5h-19zm0 0"/></clipPath><clipPath id="aR"><path d="M1059.14 694.121h-14.757a1.575 1.575 0 01-1.578-1.562c0-.864.71-1.563 1.578-1.563h14.758c.87 0 1.582.7 1.582 1.563 0 .859-.711 1.562-1.582 1.562zm0 0"/></clipPath><clipPath id="aT"><path d="M1066 674h38v4h-38zm0 0"/></clipPath><clipPath id="aU"><path d="M1102.152 677.836h-33.754a1.576 1.576 0 01-1.582-1.563c0-.863.711-1.562 1.582-1.562h33.754c.871 0 1.582.7 1.582 1.562 0 .86-.71 1.563-1.582 1.563zm0 0"/></clipPath><clipPath id="aW"><path d="M1145 666h30v4h-30zm0 0"/></clipPath><clipPath id="aX"><path d="M1173.383 669.688h-26.117a1.575 1.575 0 01-1.579-1.563c0-.86.711-1.563 1.579-1.563h26.117c.87 0 1.582.704 1.582 1.563 0 .86-.711 1.563-1.582 1.563zm0 0"/></clipPath><clipPath id="aZ"><path d="M1028 642h33v4h-33zm0 0"/></clipPath><clipPath id="ba"><path d="M1058.61 645.266h-28.47a1.576 1.576 0 01-1.581-1.563c0-.863.71-1.562 1.582-1.562h28.468c.871 0 1.582.699 1.582 1.562 0 .86-.71 1.563-1.582 1.563zm0 0"/></clipPath><clipPath id="bc"><path d="M1042 650h49v4h-49zm0 0"/></clipPath><clipPath id="bd"><path d="M1089.23 653.402h-44.816a1.576 1.576 0 01-1.582-1.562c0-.86.711-1.563 1.582-1.563h44.816c.872 0 1.582.703 1.582 1.563s-.71 1.562-1.582 1.562zm0 0"/></clipPath><clipPath id="bf"><path d="M1068 642h72v4h-72zm0 0"/></clipPath><clipPath id="bg"><path d="M1137.61 645.266h-67.75a1.576 1.576 0 01-1.583-1.563c0-.863.711-1.562 1.582-1.562h67.75c.871 0 1.579.699 1.579 1.562 0 .86-.708 1.563-1.579 1.563zm0 0"/></clipPath><clipPath id="bi"><path d="M1125 674h79v4h-79zm0 0"/></clipPath><clipPath id="bj"><path d="M1201.941 677.836h-75.195a1.576 1.576 0 01-1.582-1.563c0-.863.711-1.562 1.582-1.562h75.195c.871 0 1.582.7 1.582 1.562 0 .86-.71 1.563-1.582 1.563zm0 0"/></clipPath><clipPath id="bl"><path d="M910 494h30v3h-30zm0 0"/></clipPath><clipPath id="bm"><path d="M938.68 496.867h-26.7c-.59 0-1.07-.48-1.07-1.062 0-.59.48-1.063 1.07-1.063h26.7c.59 0 1.07.48 1.07 1.063a1.07 1.07 0 01-1.07 1.062zm0 0"/></clipPath><clipPath id="bo"><path d="M910 500h19v3h-19zm0 0"/></clipPath><clipPath id="bp"><path d="M927.617 502.402H911.98c-.59 0-1.07-.48-1.07-1.062 0-.59.48-1.063 1.07-1.063h15.637c.59 0 1.07.48 1.07 1.063 0 .59-.48 1.062-1.07 1.062zm0 0"/></clipPath><clipPath id="br"><path d="M928 511h24v3h-24zm0 0"/></clipPath><clipPath id="bs"><path d="M950.672 513.492H929.21a1.07 1.07 0 01-1.074-1.062c0-.59.48-1.059 1.074-1.059h21.46c.59 0 1.071.48 1.071 1.059a1.07 1.07 0 01-1.07 1.062zm0 0"/></clipPath><clipPath id="bu"><path d="M918 527h12v4h-12zm0 0"/></clipPath><clipPath id="bv"><path d="M928.73 530.117h-9.05c-.59 0-1.07-.48-1.07-1.062 0-.59.48-1.059 1.07-1.059h9.05c.59 0 1.07.48 1.07 1.059a1.07 1.07 0 01-1.07 1.062zm0 0"/></clipPath><clipPath id="bx"><path d="M936 544h18v3h-18zm0 0"/></clipPath><clipPath id="by"><path d="M952.734 546.742H937.13a1.07 1.07 0 01-1.074-1.062c0-.59.48-1.059 1.074-1.059h15.605c.59 0 1.07.48 1.07 1.059 0 .593-.48 1.062-1.07 1.062zm0 0"/></clipPath><clipPath id="bA"><path d="M944 550h20v3h-20zm0 0"/></clipPath><clipPath id="bB"><path d="M962.402 552.29h-16.578a1.07 1.07 0 01-1.07-1.063c0-.59.48-1.063 1.07-1.063h16.578c.59 0 1.07.48 1.07 1.063.012.59-.468 1.062-1.07 1.062zm0 0"/></clipPath><clipPath id="bD"><path d="M935 561h20v3h-20zm0 0"/></clipPath><clipPath id="bE"><path d="M953.395 563.379h-16.579c-.59 0-1.07-.48-1.07-1.063 0-.59.48-1.062 1.07-1.062h16.579c.59 0 1.07.48 1.07 1.062a1.07 1.07 0 01-1.07 1.063zm0 0"/></clipPath><clipPath id="bG"><path d="M936 577h15v4h-15zm0 0"/></clipPath><clipPath id="bH"><path d="M949.36 580.004h-12.141a1.07 1.07 0 01-1.074-1.063c0-.59.48-1.058 1.074-1.058h12.14c.59 0 1.07.48 1.07 1.058.012.582-.468 1.063-1.07 1.063zm0 0"/></clipPath><clipPath id="bJ"><path d="M928 583h15v3h-15zm0 0"/></clipPath><clipPath id="bK"><path d="M941.242 585.547h-12.144c-.59 0-1.07-.48-1.07-1.059 0-.59.48-1.062 1.07-1.062h12.144c.59 0 1.07.48 1.07 1.062a1.07 1.07 0 01-1.07 1.059zm0 0"/></clipPath><clipPath id="bM"><path d="M928 588h15v4h-15zm0 0"/></clipPath><clipPath id="bN"><path d="M941.242 591.082h-12.144c-.59 0-1.07-.48-1.07-1.059 0-.59.48-1.062 1.07-1.062h12.144c.59 0 1.07.48 1.07 1.062 0 .59-.48 1.059-1.07 1.059zm0 0"/></clipPath><clipPath id="bP"><path d="M946 588h24v4h-24zm0 0"/></clipPath><clipPath id="bQ"><path d="M968.457 591.082h-20.89c-.59 0-1.07-.48-1.07-1.059 0-.59.48-1.062 1.07-1.062h20.89c.594 0 1.074.48 1.074 1.062 0 .59-.48 1.059-1.074 1.059zm0 0"/></clipPath><clipPath id="bS"><path d="M928 572h24v3h-24zm0 0"/></clipPath><clipPath id="bT"><path d="M949.969 574.457h-20.871c-.59 0-1.07-.48-1.07-1.059 0-.593.48-1.062 1.07-1.062h20.87c.595 0 1.075.48 1.075 1.062 0 .59-.48 1.059-1.074 1.059zm0 0"/></clipPath><clipPath id="bV"><path d="M955 572h24v3h-24zm0 0"/></clipPath><clipPath id="bW"><path d="M977.016 574.457h-20.871c-.59 0-1.07-.48-1.07-1.059 0-.593.48-1.062 1.07-1.062h20.87c.594 0 1.075.48 1.075 1.062 0 .59-.48 1.059-1.074 1.059zm0 0"/></clipPath><clipPath id="bY"><path d="M928 566h13v3h-13zm0 0"/></clipPath><clipPath id="bZ"><path d="M939.219 568.914h-10.04c-.59 0-1.07-.48-1.07-1.062 0-.59.48-1.063 1.07-1.063h10.04c.59 0 1.07.48 1.07 1.063.012.59-.469 1.062-1.07 1.062zm0 0"/></clipPath><clipPath id="cb"><path d="M944 555h26v3h-26zm0 0"/></clipPath><clipPath id="cc"><path d="M968.5 557.832h-22.973a1.07 1.07 0 01-1.074-1.059c0-.593.48-1.062 1.074-1.062H968.5c.59 0 1.07.48 1.07 1.062.008.579-.48 1.059-1.07 1.059zm0 0"/></clipPath><clipPath id="ce"><path d="M973 555h8v3h-8zm0 0"/></clipPath><clipPath id="cf"><path d="M979.238 557.832h-4.883c-.59 0-1.07-.48-1.07-1.059 0-.593.48-1.062 1.07-1.062h4.883c.59 0 1.07.48 1.07 1.062a1.07 1.07 0 01-1.07 1.059zm0 0"/></clipPath><clipPath id="ch"><path d="M919 505h19v3h-19zm0 0"/></clipPath><clipPath id="ci"><path d="M935.945 507.945H920.31c-.59 0-1.07-.48-1.07-1.058 0-.594.48-1.063 1.07-1.063h15.636c.59 0 1.07.48 1.07 1.063a1.07 1.07 0 01-1.07 1.058zm0 0"/></clipPath><clipPath id="ck"><path d="M928 516h19v4h-19zm0 0"/></clipPath><clipPath id="cl"><path d="M945.406 519.035H929.77c-.59 0-1.07-.48-1.07-1.058 0-.59.48-1.063 1.07-1.063h15.636c.59 0 1.07.48 1.07 1.063.012.578-.468 1.058-1.07 1.058zm0 0"/></clipPath><clipPath id="cn"><path d="M910 655h30v3h-30zm0 0"/></clipPath><clipPath id="co"><path d="M938.68 657.637h-26.7c-.59 0-1.07-.48-1.07-1.063 0-.59.48-1.062 1.07-1.062h26.7c.59 0 1.07.48 1.07 1.062a1.07 1.07 0 01-1.07 1.063zm0 0"/></clipPath><clipPath id="cq"><path d="M910 661h19v3h-19zm0 0"/></clipPath><clipPath id="cr"><path d="M927.617 663.18H911.98c-.59 0-1.07-.48-1.07-1.059 0-.594.48-1.062 1.07-1.062h15.637c.59 0 1.07.48 1.07 1.062a1.07 1.07 0 01-1.07 1.059zm0 0"/></clipPath><clipPath id="ct"><path d="M928 672h24v3h-24zm0 0"/></clipPath><clipPath id="cu"><path d="M950.672 674.262H929.21a1.07 1.07 0 01-1.074-1.063c0-.59.48-1.058 1.074-1.058h21.46c.59 0 1.071.48 1.071 1.058 0 .59-.48 1.063-1.07 1.063zm0 0"/></clipPath><clipPath id="cw"><path d="M919 666h19v3h-19zm0 0"/></clipPath><clipPath id="cx"><path d="M935.945 668.727H920.31c-.59 0-1.07-.48-1.07-1.063 0-.59.48-1.059 1.07-1.059h15.636c.59 0 1.07.48 1.07 1.06a1.07 1.07 0 01-1.07 1.062zm0 0"/></clipPath><clipPath id="cz"><path d="M928 677h19v3h-19zm0 0"/></clipPath><clipPath id="cA"><path d="M945.406 679.805H929.77c-.59 0-1.07-.48-1.07-1.059 0-.59.48-1.062 1.07-1.062h15.636c.59 0 1.07.48 1.07 1.062.012.578-.468 1.059-1.07 1.059zm0 0"/></clipPath><clipPath id="cC"><path d="M918 533h22v3h-22zm0 0"/></clipPath><clipPath id="cD"><path d="M938.86 535.66h-19.38c-.59 0-1.07-.48-1.07-1.058 0-.59.48-1.063 1.07-1.063h19.38c.59 0 1.07.48 1.07 1.063a1.07 1.07 0 01-1.07 1.058zm0 0"/></clipPath><clipPath id="cF"><path d="M928 539h33v3h-33zm0 0"/></clipPath><clipPath id="cG"><path d="M959.7 541.207h-30.5a1.07 1.07 0 01-1.071-1.062c0-.59.48-1.06 1.07-1.06h30.5c.59 0 1.07.481 1.07 1.06.012.582-.468 1.062-1.07 1.062zm0 0"/></clipPath><clipPath id="cI"><path d="M936 605h18v3h-18zm0 0"/></clipPath><clipPath id="cJ"><path d="M952.734 607.8H937.13a1.07 1.07 0 01-1.074-1.062c0-.59.48-1.062 1.074-1.062h15.605c.59 0 1.07.48 1.07 1.062 0 .59-.48 1.063-1.07 1.063zm0 0"/></clipPath><clipPath id="cL"><path d="M944 611h20v3h-20zm0 0"/></clipPath><clipPath id="cM"><path d="M962.402 613.344h-16.578c-.59 0-1.07-.48-1.07-1.059 0-.594.48-1.062 1.07-1.062h16.578c.59 0 1.07.48 1.07 1.062.012.59-.468 1.059-1.07 1.059zm0 0"/></clipPath><clipPath id="cO"><path d="M935 622h20v3h-20zm0 0"/></clipPath><clipPath id="cP"><path d="M953.395 624.434h-16.579c-.59 0-1.07-.48-1.07-1.059 0-.594.48-1.063 1.07-1.063h16.579c.59 0 1.07.481 1.07 1.063a1.07 1.07 0 01-1.07 1.059zm0 0"/></clipPath><clipPath id="cR"><path d="M923 638h15v4h-15zm0 0"/></clipPath><clipPath id="cS"><path d="M936.656 641.059h-12.14c-.59 0-1.07-.48-1.07-1.059 0-.59.48-1.063 1.07-1.063h12.14c.59 0 1.07.481 1.07 1.063a1.07 1.07 0 01-1.07 1.059zm0 0"/></clipPath><clipPath id="cU"><path d="M915 644h15v3h-15zm0 0"/></clipPath><clipPath id="cV"><path d="M928.527 646.605h-12.14c-.59 0-1.07-.48-1.07-1.062 0-.59.48-1.059 1.07-1.059h12.14c.594 0 1.075.48 1.075 1.059.007.582-.48 1.062-1.075 1.062zm0 0"/></clipPath><clipPath id="cX"><path d="M915 650h15v3h-15zm0 0"/></clipPath><clipPath id="cY"><path d="M928.527 652.14h-12.14c-.59 0-1.07-.48-1.07-1.062 0-.59.48-1.058 1.07-1.058h12.14c.594 0 1.075.48 1.075 1.058.007.59-.48 1.063-1.075 1.063zm0 0"/></clipPath><clipPath id="da"><path d="M933 650h24v3h-24zm0 0"/></clipPath><clipPath id="db"><path d="M955.746 652.14h-20.89c-.59 0-1.07-.48-1.07-1.062 0-.59.48-1.058 1.07-1.058h20.89c.59 0 1.07.48 1.07 1.058.012.59-.468 1.063-1.07 1.063zm0 0"/></clipPath><clipPath id="dd"><path d="M915 633h24v3h-24zm0 0"/></clipPath><clipPath id="de"><path d="M937.258 635.516h-20.871c-.59 0-1.07-.48-1.07-1.063 0-.59.48-1.058 1.07-1.058h20.87c.59 0 1.071.48 1.071 1.058.012.59-.469 1.063-1.07 1.063zm0 0"/></clipPath><clipPath id="dg"><path d="M942 633h24v3h-24zm0 0"/></clipPath><clipPath id="dh"><path d="M964.305 635.516h-20.871c-.59 0-1.07-.48-1.07-1.063 0-.59.48-1.058 1.07-1.058h20.87c.59 0 1.071.48 1.071 1.058.012.59-.469 1.063-1.07 1.063zm0 0"/></clipPath><clipPath id="dj"><path d="M928 627h13v3h-13zm0 0"/></clipPath><clipPath id="dk"><path d="M939.219 629.969h-10.04c-.59 0-1.07-.48-1.07-1.059 0-.594.48-1.062 1.07-1.062h10.04c.59 0 1.07.48 1.07 1.062.012.59-.469 1.059-1.07 1.059zm0 0"/></clipPath><clipPath id="dm"><path d="M944 616h26v3h-26zm0 0"/></clipPath><clipPath id="dn"><path d="M968.5 618.89h-22.973c-.593 0-1.074-.48-1.074-1.062 0-.59.48-1.062 1.074-1.062H968.5c.59 0 1.07.48 1.07 1.062.008.582-.48 1.063-1.07 1.063zm0 0"/></clipPath><clipPath id="dp"><path d="M973 616h8v3h-8zm0 0"/></clipPath><clipPath id="dq"><path d="M979.238 618.89h-4.883c-.59 0-1.07-.48-1.07-1.062 0-.59.48-1.062 1.07-1.062h4.883c.59 0 1.07.48 1.07 1.062a1.07 1.07 0 01-1.07 1.063zm0 0"/></clipPath><clipPath id="ds"><path d="M918 594h22v3h-22zm0 0"/></clipPath><clipPath id="dt"><path d="M938.86 596.719h-19.38c-.59 0-1.07-.48-1.07-1.063 0-.59.48-1.058 1.07-1.058h19.38c.59 0 1.07.48 1.07 1.058a1.07 1.07 0 01-1.07 1.063zm0 0"/></clipPath><clipPath id="dv"><path d="M928 600h33v3h-33zm0 0"/></clipPath><clipPath id="dw"><path d="M959.7 602.266h-30.5a1.07 1.07 0 01-1.071-1.063c0-.59.48-1.062 1.07-1.062h30.5c.59 0 1.07.48 1.07 1.062.012.582-.468 1.063-1.07 1.063zm0 0"/></clipPath><clipPath id="dy"><path d="M928 522h29v3h-29zm0 0"/></clipPath><clipPath id="dz"><path d="M955.406 524.57H928.72c-.332 0-.602-.48-.602-1.058 0-.59.27-1.063.602-1.063h26.687c.328 0 .602.48.602 1.063 0 .59-.274 1.058-.602 1.058zm0 0"/></clipPath><clipPath id="dB"><path d="M1146.984 56.887h166.5v166.5h-166.5zm0 0"/></clipPath><clipPath id="dC"><path d="M51.688 189h152.25v172.773H51.688zm0 0"/></clipPath><clipPath id="dD"><path d="M65 147.273h30V177H65zm0 0"/></clipPath><clipPath id="dE"><path d="M98 147.273h28V177H98zm0 0"/></clipPath><clipPath id="dF"><path d="M129 147.273h33V177h-33zm0 0"/></clipPath><clipPath id="dG"><path d="M166 147.273h25V177h-25zm0 0"/></clipPath><clipPath id="dH"><path d="M51.688 476h156v176.941h-156zm0 0"/></clipPath><clipPath id="dI"><path d="M88 433.191h25V463H88zm0 0"/></clipPath><clipPath id="dJ"><path d="M116 433.191h25V464h-25zm0 0"/></clipPath><clipPath id="dK"><path d="M145 433.191h24V464h-24zm0 0"/></clipPath><clipPath id="dL"><path d="M1133.75 268h193.5v172h-193.5zm0 0"/></clipPath><linearGradient x1="236.447" gradientTransform="matrix(1.001 0 0 1.00093 802.042 377.765)" y1="117.13" x2="236.447" gradientUnits="userSpaceOnUse" y2="120.25" id="g"><stop stop-color="#00BAFF" offset="0"/><stop stop-color="#00BAFF" offset=".5"/><stop stop-color="#00BAFF" offset="1"/></linearGradient><linearGradient x1="228.333" gradientTransform="matrix(1.001 0 0 1.00093 802.042 377.765)" y1="125.27" x2="228.333" gradientUnits="userSpaceOnUse" y2="128.39" id="j"><stop stop-color="#00B8FF" offset="0"/><stop stop-color="#00B8FF" offset=".5"/><stop stop-color="#00B7FF" offset="1"/></linearGradient><linearGradient x1="257.888" gradientTransform="matrix(1.001 0 0 1.00093 802.042 377.765)" y1="141.54" x2="257.888" gradientUnits="userSpaceOnUse" y2="144.66" id="m"><stop stop-color="#00B3FF" offset="0"/><stop stop-color="#00B3FF" offset=".5"/><stop stop-color="#00B2FF" offset="1"/></linearGradient><linearGradient x1="234.791" gradientTransform="matrix(1.001 0 0 1.00093 802.042 377.765)" y1="165.95" x2="234.791" gradientUnits="userSpaceOnUse" y2="169.07" id="p"><stop stop-color="#00ACFF" offset="0"/><stop stop-color="#00ACFF" offset=".5"/><stop stop-color="#00ABFF" offset="1"/></linearGradient><linearGradient x1="265.219" gradientTransform="matrix(1.001 0 0 1.00093 802.042 377.765)" y1="190.36" x2="265.219" gradientUnits="userSpaceOnUse" y2="193.48" id="s"><stop stop-color="#00A5FF" offset="0"/><stop stop-color="#00A4FF" offset=".5"/><stop stop-color="#00A4FF" offset="1"/></linearGradient><linearGradient x1="333.614" gradientTransform="matrix(1.001 0 0 1.00093 802.042 377.765)" y1="190.36" x2="333.614" gradientUnits="userSpaceOnUse" y2="193.48" id="v"><stop stop-color="#00A5FF" offset="0"/><stop stop-color="#00A4FF" offset=".5"/><stop stop-color="#00A4FF" offset="1"/></linearGradient><linearGradient x1="278.707" gradientTransform="matrix(1.001 0 0 1.00093 802.042 377.765)" y1="198.49" x2="278.707" gradientUnits="userSpaceOnUse" y2="201.61" id="y"><stop stop-color="#00A2FF" offset="0"/><stop stop-color="#00A2FF" offset=".5"/><stop stop-color="#00A1FF" offset="1"/></linearGradient><linearGradient x1="265.475" gradientTransform="matrix(1.001 0 0 1.00093 802.042 377.765)" y1="214.76" x2="265.475" gradientUnits="userSpaceOnUse" y2="217.88" id="B"><stop stop-color="#009DFF" offset="0"/><stop stop-color="#009DFF" offset=".5"/><stop stop-color="#009DFF" offset="1"/></linearGradient><linearGradient x1="262.817" gradientTransform="matrix(1.001 0 0 1.00093 802.042 377.765)" y1="239.17" x2="262.817" gradientUnits="userSpaceOnUse" y2="242.29" id="E"><stop stop-color="#0096FF" offset="0"/><stop stop-color="#0096FF" offset=".5"/><stop stop-color="#0095FF" offset="1"/></linearGradient><linearGradient x1="250.896" gradientTransform="matrix(1.001 0 0 1.00093 802.042 377.765)" y1="247.3" x2="250.896" gradientUnits="userSpaceOnUse" y2="250.42" id="H"><stop stop-color="#0093FF" offset="0"/><stop stop-color="#0093FF" offset=".5"/><stop stop-color="#0093FF" offset="1"/></linearGradient><linearGradient x1="250.896" gradientTransform="matrix(1.001 0 0 1.00093 802.042 377.765)" y1="255.44" x2="250.896" gradientUnits="userSpaceOnUse" y2="258.56" id="K"><stop stop-color="#0091FF" offset="0"/><stop stop-color="#0091FF" offset=".5"/><stop stop-color="#0090FF" offset="1"/></linearGradient><linearGradient x1="318.351" gradientTransform="matrix(1.001 0 0 1.00093 802.042 377.765)" y1="255.44" x2="318.351" gradientUnits="userSpaceOnUse" y2="258.56" id="N"><stop stop-color="#0091FF" offset="0"/><stop stop-color="#0091FF" offset=".5"/><stop stop-color="#0090FF" offset="1"/></linearGradient><linearGradient x1="257.302" gradientTransform="matrix(1.001 0 0 1.00093 802.042 377.765)" y1="231.03" x2="257.302" gradientUnits="userSpaceOnUse" y2="234.15" id="Q"><stop stop-color="#0098FF" offset="0"/><stop stop-color="#0098FF" offset=".5"/><stop stop-color="#0098FF" offset="1"/></linearGradient><linearGradient x1="340.149" gradientTransform="matrix(1.001 0 0 1.00093 802.042 377.765)" y1="239.17" x2="340.149" gradientUnits="userSpaceOnUse" y2="242.29" id="T"><stop stop-color="#0096FF" offset="0"/><stop stop-color="#0096FF" offset=".5"/><stop stop-color="#0095FF" offset="1"/></linearGradient><linearGradient x1="331.918" gradientTransform="matrix(1.001 0 0 1.00093 802.042 377.765)" y1="231.03" x2="331.918" gradientUnits="userSpaceOnUse" y2="234.15" id="W"><stop stop-color="#0098FF" offset="0"/><stop stop-color="#0098FF" offset=".5"/><stop stop-color="#0098FF" offset="1"/></linearGradient><linearGradient x1="249.475" gradientTransform="matrix(1.001 0 0 1.00093 802.042 377.765)" y1="222.9" x2="249.475" gradientUnits="userSpaceOnUse" y2="226.02" id="Z"><stop stop-color="#009BFF" offset="0"/><stop stop-color="#009BFF" offset=".5"/><stop stop-color="#009AFF" offset="1"/></linearGradient><linearGradient x1="282.95" gradientTransform="matrix(1.001 0 0 1.00093 802.042 377.765)" y1="206.63" x2="282.95" gradientUnits="userSpaceOnUse" y2="209.75" id="ac"><stop stop-color="#00A0FF" offset="0"/><stop stop-color="#009FFF" offset=".5"/><stop stop-color="#009FFF" offset="1"/></linearGradient><linearGradient x1="357.923" gradientTransform="matrix(1.001 0 0 1.00093 802.042 377.765)" y1="198.49" x2="357.923" gradientUnits="userSpaceOnUse" y2="201.61" id="af"><stop stop-color="#00A2FF" offset="0"/><stop stop-color="#00A2FF" offset=".5"/><stop stop-color="#00A1FF" offset="1"/></linearGradient><linearGradient x1="355.646" gradientTransform="matrix(1.001 0 0 1.00093 802.042 377.765)" y1="125.27" x2="355.646" gradientUnits="userSpaceOnUse" y2="128.39" id="ai"><stop stop-color="#00B8FF" offset="0"/><stop stop-color="#00B8FF" offset=".5"/><stop stop-color="#00B7FF" offset="1"/></linearGradient><linearGradient x1="240.557" gradientTransform="matrix(1.001 0 0 1.00093 802.042 377.765)" y1="133.41" x2="240.557" gradientUnits="userSpaceOnUse" y2="136.53" id="al"><stop stop-color="#00B6FF" offset="0"/><stop stop-color="#00B5FF" offset=".5"/><stop stop-color="#00B5FF" offset="1"/></linearGradient><linearGradient x1="254.444" gradientTransform="matrix(1.001 0 0 1.00093 802.042 377.765)" y1="149.68" x2="254.444" gradientUnits="userSpaceOnUse" y2="152.8" id="ao"><stop stop-color="#00B1FF" offset="0"/><stop stop-color="#00B0FF" offset=".5"/><stop stop-color="#00B0FF" offset="1"/></linearGradient><linearGradient x1="242.09" gradientTransform="matrix(1.001 0 0 1.00093 802.042 377.765)" y1="174.08" x2="242.09" gradientUnits="userSpaceOnUse" y2="177.2" id="ar"><stop stop-color="#00A9FF" offset="0"/><stop stop-color="#00A9FF" offset=".5"/><stop stop-color="#00A9FF" offset="1"/></linearGradient><linearGradient x1="264.519" gradientTransform="matrix(1.001 0 0 1.00093 802.042 377.765)" y1="182.22" x2="264.519" gradientUnits="userSpaceOnUse" y2="185.34" id="au"><stop stop-color="#00A7FF" offset="0"/><stop stop-color="#00A7FF" offset=".5"/><stop stop-color="#00A6FF" offset="1"/></linearGradient><linearGradient x1="301.391" gradientTransform="matrix(1.001 0 0 1.00093 802.042 377.765)" y1="174.08" x2="301.391" gradientUnits="userSpaceOnUse" y2="177.2" id="ax"><stop stop-color="#00A9FF" offset="0"/><stop stop-color="#00A9FF" offset=".5"/><stop stop-color="#00A9FF" offset="1"/></linearGradient><linearGradient x1="361.94" gradientTransform="matrix(1.001 0 0 1.00093 802.042 377.765)" y1="206.63" x2="361.94" gradientUnits="userSpaceOnUse" y2="209.75" id="aA"><stop stop-color="#00A0FF" offset="0"/><stop stop-color="#009FFF" offset=".5"/><stop stop-color="#009FFF" offset="1"/></linearGradient><linearGradient x1="277.231" gradientTransform="matrix(1.001 0 0 1.00093 802.042 377.765)" y1="157.81" x2="277.231" gradientUnits="userSpaceOnUse" y2="160.93" id="aD"><stop stop-color="#00AEFF" offset="0"/><stop stop-color="#00AEFF" offset=".5"/><stop stop-color="#00AEFF" offset="1"/></linearGradient><linearGradient x1="265.219" gradientTransform="matrix(1.001 0 0 1.00093 802.042 377.765)" y1="280.4" x2="265.219" gradientUnits="userSpaceOnUse" y2="283.52" id="aG"><stop stop-color="#008AFF" offset="0"/><stop stop-color="#0089FF" offset=".5"/><stop stop-color="#0089FF" offset="1"/></linearGradient><linearGradient x1="333.614" gradientTransform="matrix(1.001 0 0 1.00093 802.042 377.765)" y1="280.4" x2="333.614" gradientUnits="userSpaceOnUse" y2="283.52" id="aJ"><stop stop-color="#008AFF" offset="0"/><stop stop-color="#0089FF" offset=".5"/><stop stop-color="#0089FF" offset="1"/></linearGradient><linearGradient x1="278.707" gradientTransform="matrix(1.001 0 0 1.00093 802.042 377.765)" y1="288.53" x2="278.707" gradientUnits="userSpaceOnUse" y2="291.65" id="aM"><stop stop-color="#0087FF" offset="0"/><stop stop-color="#0087FF" offset=".5"/><stop stop-color="#0086FF" offset="1"/></linearGradient><linearGradient x1="265.475" gradientTransform="matrix(1.001 0 0 1.00093 802.042 377.765)" y1="304.8" x2="265.475" gradientUnits="userSpaceOnUse" y2="307.92" id="aP"><stop stop-color="#0082FF" offset="0"/><stop stop-color="#0082FF" offset=".5"/><stop stop-color="#0082FF" offset="1"/></linearGradient><linearGradient x1="249.475" gradientTransform="matrix(1.001 0 0 1.00093 802.042 377.765)" y1="312.94" x2="249.475" gradientUnits="userSpaceOnUse" y2="316.06" id="aS"><stop stop-color="#0080FF" offset="0"/><stop stop-color="#0080FF" offset=".5"/><stop stop-color="#007FFF" offset="1"/></linearGradient><linearGradient x1="282.95" gradientTransform="matrix(1.001 0 0 1.00093 802.042 377.765)" y1="296.67" x2="282.95" gradientUnits="userSpaceOnUse" y2="299.79" id="aV"><stop stop-color="#0085FF" offset="0"/><stop stop-color="#0084FF" offset=".5"/><stop stop-color="#0084FF" offset="1"/></linearGradient><linearGradient x1="357.923" gradientTransform="matrix(1.001 0 0 1.00093 802.042 377.765)" y1="288.53" x2="357.923" gradientUnits="userSpaceOnUse" y2="291.65" id="aY"><stop stop-color="#0087FF" offset="0"/><stop stop-color="#0087FF" offset=".5"/><stop stop-color="#0086FF" offset="1"/></linearGradient><linearGradient x1="242.09" gradientTransform="matrix(1.001 0 0 1.00093 802.042 377.765)" y1="264.13" x2="242.09" gradientUnits="userSpaceOnUse" y2="267.25" id="bb"><stop stop-color="#008EFF" offset="0"/><stop stop-color="#008EFF" offset=".5"/><stop stop-color="#008EFF" offset="1"/></linearGradient><linearGradient x1="264.519" gradientTransform="matrix(1.001 0 0 1.00093 802.042 377.765)" y1="272.26" x2="264.519" gradientUnits="userSpaceOnUse" y2="275.38" id="be"><stop stop-color="#008CFF" offset="0"/><stop stop-color="#008CFF" offset=".5"/><stop stop-color="#008BFF" offset="1"/></linearGradient><linearGradient x1="301.391" gradientTransform="matrix(1.001 0 0 1.00093 802.042 377.765)" y1="264.13" x2="301.391" gradientUnits="userSpaceOnUse" y2="267.25" id="bh"><stop stop-color="#008EFF" offset="0"/><stop stop-color="#008EFF" offset=".5"/><stop stop-color="#008EFF" offset="1"/></linearGradient><linearGradient x1="361.94" gradientTransform="matrix(1.001 0 0 1.00093 802.042 377.765)" y1="296.67" x2="361.94" gradientUnits="userSpaceOnUse" y2="299.79" id="bk"><stop stop-color="#0085FF" offset="0"/><stop stop-color="#0084FF" offset=".5"/><stop stop-color="#0084FF" offset="1"/></linearGradient><linearGradient x1="123.161" gradientTransform="matrix(1.001 0 0 1.00093 802.042 377.765)" y1="116.87" x2="123.161" gradientUnits="userSpaceOnUse" y2="118.99" id="bn"><stop stop-color="#0BF" offset="0"/><stop stop-color="#00BAFF" offset=".5"/><stop stop-color="#00BAFF" offset="1"/></linearGradient><linearGradient x1="117.638" gradientTransform="matrix(1.001 0 0 1.00093 802.042 377.765)" y1="122.4" x2="117.638" gradientUnits="userSpaceOnUse" y2="124.52" id="bq"><stop stop-color="#00B9FF" offset="0"/><stop stop-color="#00B9FF" offset=".5"/><stop stop-color="#00B8FF" offset="1"/></linearGradient><linearGradient x1="137.755" gradientTransform="matrix(1.001 0 0 1.00093 802.042 377.765)" y1="133.48" x2="137.755" gradientUnits="userSpaceOnUse" y2="135.6" id="bt"><stop stop-color="#00B6FF" offset="0"/><stop stop-color="#00B5FF" offset=".5"/><stop stop-color="#00B5FF" offset="1"/></linearGradient><linearGradient x1="122.034" gradientTransform="matrix(1.001 0 0 1.00093 802.042 377.765)" y1="150.09" x2="122.034" gradientUnits="userSpaceOnUse" y2="152.21" id="bw"><stop stop-color="#00B1FF" offset="0"/><stop stop-color="#00B0FF" offset=".5"/><stop stop-color="#00B0FF" offset="1"/></linearGradient><linearGradient x1="142.744" gradientTransform="matrix(1.001 0 0 1.00093 802.042 377.765)" y1="166.7" x2="142.744" gradientUnits="userSpaceOnUse" y2="168.82" id="bz"><stop stop-color="#00ACFF" offset="0"/><stop stop-color="#00ABFF" offset=".5"/><stop stop-color="#00ABFF" offset="1"/></linearGradient><linearGradient x1="151.925" gradientTransform="matrix(1.001 0 0 1.00093 802.042 377.765)" y1="172.24" x2="151.925" gradientUnits="userSpaceOnUse" y2="174.36" id="bC"><stop stop-color="#0AF" offset="0"/><stop stop-color="#0AF" offset=".5"/><stop stop-color="#00A9FF" offset="1"/></linearGradient><linearGradient x1="142.919" gradientTransform="matrix(1.001 0 0 1.00093 802.042 377.765)" y1="183.32" x2="142.919" gradientUnits="userSpaceOnUse" y2="185.44" id="bF"><stop stop-color="#00A7FF" offset="0"/><stop stop-color="#00A6FF" offset=".5"/><stop stop-color="#00A6FF" offset="1"/></linearGradient><linearGradient x1="141.109" gradientTransform="matrix(1.001 0 0 1.00093 802.042 377.765)" y1="199.93" x2="141.109" gradientUnits="userSpaceOnUse" y2="202.05" id="bI"><stop stop-color="#00A2FF" offset="0"/><stop stop-color="#00A2FF" offset=".5"/><stop stop-color="#00A1FF" offset="1"/></linearGradient><linearGradient x1="132.995" gradientTransform="matrix(1.001 0 0 1.00093 802.042 377.765)" y1="205.47" x2="132.995" gradientUnits="userSpaceOnUse" y2="207.59" id="bL"><stop stop-color="#00A0FF" offset="0"/><stop stop-color="#00A0FF" offset=".5"/><stop stop-color="#00A0FF" offset="1"/></linearGradient><linearGradient x1="132.995" gradientTransform="matrix(1.001 0 0 1.00093 802.042 377.765)" y1="211" x2="132.995" gradientUnits="userSpaceOnUse" y2="213.12" id="bO"><stop stop-color="#009EFF" offset="0"/><stop stop-color="#009EFF" offset=".5"/><stop stop-color="#009EFF" offset="1"/></linearGradient><linearGradient x1="155.813" gradientTransform="matrix(1.001 0 0 1.00093 802.042 377.765)" y1="211" x2="155.813" gradientUnits="userSpaceOnUse" y2="213.12" id="bR"><stop stop-color="#009EFF" offset="0"/><stop stop-color="#009EFF" offset=".5"/><stop stop-color="#009EFF" offset="1"/></linearGradient><linearGradient x1="137.356" gradientTransform="matrix(1.001 0 0 1.00093 802.042 377.765)" y1="194.39" x2="137.356" gradientUnits="userSpaceOnUse" y2="196.51" id="bU"><stop stop-color="#00A3FF" offset="0"/><stop stop-color="#00A3FF" offset=".5"/><stop stop-color="#00A3FF" offset="1"/></linearGradient><linearGradient x1="164.376" gradientTransform="matrix(1.001 0 0 1.00093 802.042 377.765)" y1="194.39" x2="164.376" gradientUnits="userSpaceOnUse" y2="196.51" id="bX"><stop stop-color="#00A3FF" offset="0"/><stop stop-color="#00A3FF" offset=".5"/><stop stop-color="#00A3FF" offset="1"/></linearGradient><linearGradient x1="132.028" gradientTransform="matrix(1.001 0 0 1.00093 802.042 377.765)" y1="188.85" x2="132.028" gradientUnits="userSpaceOnUse" y2="190.97" id="ca"><stop stop-color="#00A5FF" offset="0"/><stop stop-color="#00A5FF" offset=".5"/><stop stop-color="#00A5FF" offset="1"/></linearGradient><linearGradient x1="154.813" gradientTransform="matrix(1.001 0 0 1.00093 802.042 377.765)" y1="177.78" x2="154.813" gradientUnits="userSpaceOnUse" y2="179.9" id="cd"><stop stop-color="#00A8FF" offset="0"/><stop stop-color="#00A8FF" offset=".5"/><stop stop-color="#00A8FF" offset="1"/></linearGradient><linearGradient x1="174.58" gradientTransform="matrix(1.001 0 0 1.00093 802.042 377.765)" y1="177.78" x2="174.58" gradientUnits="userSpaceOnUse" y2="179.9" id="cg"><stop stop-color="#00A8FF" offset="0"/><stop stop-color="#00A8FF" offset=".5"/><stop stop-color="#00A8FF" offset="1"/></linearGradient><linearGradient x1="125.958" gradientTransform="matrix(1.001 0 0 1.00093 802.042 377.765)" y1="127.94" x2="125.958" gradientUnits="userSpaceOnUse" y2="130.06" id="cj"><stop stop-color="#00B7FF" offset="0"/><stop stop-color="#00B7FF" offset=".5"/><stop stop-color="#00B7FF" offset="1"/></linearGradient><linearGradient x1="135.411" gradientTransform="matrix(1.001 0 0 1.00093 802.042 377.765)" y1="139.02" x2="135.411" gradientUnits="userSpaceOnUse" y2="141.14" id="cm"><stop stop-color="#00B4FF" offset="0"/><stop stop-color="#00B4FF" offset=".5"/><stop stop-color="#00B3FF" offset="1"/></linearGradient><linearGradient x1="123.161" gradientTransform="matrix(1.001 0 0 1.00093 802.042 377.765)" y1="277.49" x2="123.161" gradientUnits="userSpaceOnUse" y2="279.61" id="cp"><stop stop-color="#008AFF" offset="0"/><stop stop-color="#008AFF" offset=".5"/><stop stop-color="#008AFF" offset="1"/></linearGradient><linearGradient x1="117.638" gradientTransform="matrix(1.001 0 0 1.00093 802.042 377.765)" y1="283.03" x2="117.638" gradientUnits="userSpaceOnUse" y2="285.15" id="cs"><stop stop-color="#0089FF" offset="0"/><stop stop-color="#0089FF" offset=".5"/><stop stop-color="#08F" offset="1"/></linearGradient><linearGradient x1="137.755" gradientTransform="matrix(1.001 0 0 1.00093 802.042 377.765)" y1="294.1" x2="137.755" gradientUnits="userSpaceOnUse" y2="296.22" id="cv"><stop stop-color="#0085FF" offset="0"/><stop stop-color="#0085FF" offset=".5"/><stop stop-color="#0085FF" offset="1"/></linearGradient><linearGradient x1="125.958" gradientTransform="matrix(1.001 0 0 1.00093 802.042 377.765)" y1="288.57" x2="125.958" gradientUnits="userSpaceOnUse" y2="290.69" id="cy"><stop stop-color="#0087FF" offset="0"/><stop stop-color="#0087FF" offset=".5"/><stop stop-color="#0087FF" offset="1"/></linearGradient><linearGradient x1="135.411" gradientTransform="matrix(1.001 0 0 1.00093 802.042 377.765)" y1="299.64" x2="135.411" gradientUnits="userSpaceOnUse" y2="301.76" id="cB"><stop stop-color="#0084FF" offset="0"/><stop stop-color="#0084FF" offset=".5"/><stop stop-color="#0083FF" offset="1"/></linearGradient><linearGradient x1="127.002" gradientTransform="matrix(1.001 0 0 1.00093 802.042 377.765)" y1="155.63" x2="127.002" gradientUnits="userSpaceOnUse" y2="157.75" id="cE"><stop stop-color="#00AFFF" offset="0"/><stop stop-color="#00AFFF" offset=".5"/><stop stop-color="#00AEFF" offset="1"/></linearGradient><linearGradient x1="142.268" gradientTransform="matrix(1.001 0 0 1.00093 802.042 377.765)" y1="161.17" x2="142.268" gradientUnits="userSpaceOnUse" y2="163.29" id="cH"><stop stop-color="#00ADFF" offset="0"/><stop stop-color="#00ADFF" offset=".5"/><stop stop-color="#00ADFF" offset="1"/></linearGradient><linearGradient x1="142.744" gradientTransform="matrix(1.001 0 0 1.00093 802.042 377.765)" y1="227.7" x2="142.744" gradientUnits="userSpaceOnUse" y2="229.82" id="cK"><stop stop-color="#09F" offset="0"/><stop stop-color="#09F" offset=".5"/><stop stop-color="#09F" offset="1"/></linearGradient><linearGradient x1="151.925" gradientTransform="matrix(1.001 0 0 1.00093 802.042 377.765)" y1="233.24" x2="151.925" gradientUnits="userSpaceOnUse" y2="235.36" id="cN"><stop stop-color="#0098FF" offset="0"/><stop stop-color="#0098FF" offset=".5"/><stop stop-color="#0097FF" offset="1"/></linearGradient><linearGradient x1="142.919" gradientTransform="matrix(1.001 0 0 1.00093 802.042 377.765)" y1="244.32" x2="142.919" gradientUnits="userSpaceOnUse" y2="246.44" id="cQ"><stop stop-color="#0094FF" offset="0"/><stop stop-color="#0094FF" offset=".5"/><stop stop-color="#0094FF" offset="1"/></linearGradient><linearGradient x1="128.412" gradientTransform="matrix(1.001 0 0 1.00093 802.042 377.765)" y1="260.93" x2="128.412" gradientUnits="userSpaceOnUse" y2="263.05" id="cT"><stop stop-color="#008FFF" offset="0"/><stop stop-color="#008FFF" offset=".5"/><stop stop-color="#008FFF" offset="1"/></linearGradient><linearGradient x1="120.298" gradientTransform="matrix(1.001 0 0 1.00093 802.042 377.765)" y1="266.47" x2="120.298" gradientUnits="userSpaceOnUse" y2="268.59" id="cW"><stop stop-color="#008EFF" offset="0"/><stop stop-color="#008EFF" offset=".5"/><stop stop-color="#008DFF" offset="1"/></linearGradient><linearGradient x1="120.298" gradientTransform="matrix(1.001 0 0 1.00093 802.042 377.765)" y1="272" x2="120.298" gradientUnits="userSpaceOnUse" y2="274.12" id="cZ"><stop stop-color="#008CFF" offset="0"/><stop stop-color="#008CFF" offset=".5"/><stop stop-color="#008CFF" offset="1"/></linearGradient><linearGradient x1="143.115" gradientTransform="matrix(1.001 0 0 1.00093 802.042 377.765)" y1="272" x2="143.115" gradientUnits="userSpaceOnUse" y2="274.12" id="dc"><stop stop-color="#008CFF" offset="0"/><stop stop-color="#008CFF" offset=".5"/><stop stop-color="#008CFF" offset="1"/></linearGradient><linearGradient x1="124.659" gradientTransform="matrix(1.001 0 0 1.00093 802.042 377.765)" y1="255.39" x2="124.659" gradientUnits="userSpaceOnUse" y2="257.51" id="df"><stop stop-color="#0091FF" offset="0"/><stop stop-color="#0091FF" offset=".5"/><stop stop-color="#0091FF" offset="1"/></linearGradient><linearGradient x1="151.679" gradientTransform="matrix(1.001 0 0 1.00093 802.042 377.765)" y1="255.39" x2="151.679" gradientUnits="userSpaceOnUse" y2="257.51" id="di"><stop stop-color="#0091FF" offset="0"/><stop stop-color="#0091FF" offset=".5"/><stop stop-color="#0091FF" offset="1"/></linearGradient><linearGradient x1="132.028" gradientTransform="matrix(1.001 0 0 1.00093 802.042 377.765)" y1="249.85" x2="132.028" gradientUnits="userSpaceOnUse" y2="251.97" id="dl"><stop stop-color="#0093FF" offset="0"/><stop stop-color="#0093FF" offset=".5"/><stop stop-color="#0092FF" offset="1"/></linearGradient><linearGradient x1="154.813" gradientTransform="matrix(1.001 0 0 1.00093 802.042 377.765)" y1="238.78" x2="154.813" gradientUnits="userSpaceOnUse" y2="240.9" id="do"><stop stop-color="#0096FF" offset="0"/><stop stop-color="#0096FF" offset=".5"/><stop stop-color="#0096FF" offset="1"/></linearGradient><linearGradient x1="174.58" gradientTransform="matrix(1.001 0 0 1.00093 802.042 377.765)" y1="238.78" x2="174.58" gradientUnits="userSpaceOnUse" y2="240.9" id="dr"><stop stop-color="#0096FF" offset="0"/><stop stop-color="#0096FF" offset=".5"/><stop stop-color="#0096FF" offset="1"/></linearGradient><linearGradient x1="127.002" gradientTransform="matrix(1.001 0 0 1.00093 802.042 377.765)" y1="216.63" x2="127.002" gradientUnits="userSpaceOnUse" y2="218.75" id="du"><stop stop-color="#009DFF" offset="0"/><stop stop-color="#009DFF" offset=".5"/><stop stop-color="#009CFF" offset="1"/></linearGradient><linearGradient x1="142.268" gradientTransform="matrix(1.001 0 0 1.00093 802.042 377.765)" y1="222.17" x2="142.268" gradientUnits="userSpaceOnUse" y2="224.29" id="dx"><stop stop-color="#009BFF" offset="0"/><stop stop-color="#009BFF" offset=".5"/><stop stop-color="#009BFF" offset="1"/></linearGradient><linearGradient x1="139.886" gradientTransform="matrix(1.001 0 0 1.00093 802.042 377.765)" y1="144.55" x2="139.886" gradientUnits="userSpaceOnUse" y2="146.67" id="dA"><stop stop-color="#00B2FF" offset="0"/><stop stop-color="#00B2FF" offset=".5"/><stop stop-color="#00B2FF" offset="1"/></linearGradient></defs><g clip-path="url(#a)"><path fill="#1b181d" d="M1087.219 672.738c0 8.547-6.922 15.457-15.461 15.457H289.473c-8.54 0-15.47-6.91-15.47-15.457V140.801c0-8.531 6.93-15.461 15.47-15.461h782.285c8.539 0 15.46 6.93 15.46 15.46v531.938"/></g><path fill="#183651" d="M1054.18 647.8a5.05 5.05 0 01-5.047 5.048H312.102c-2.79 0-5.059-2.262-5.059-5.047V165.746a5.06 5.06 0 015.059-5.059h737.03a5.052 5.052 0 015.048 5.06V647.8"/><path fill="#918f8f" d="M579.742 754.5h201.742v-66.305H579.742zm0 0"/><g clip-path="url(#b)"><path fill="#6e6b6c" d="M812.219 789.172H549V754.5h263.219v34.672"/></g><path fill="#15151e" d="M359.93 637.55h641.375V204.497H359.93zm0 0"/><path fill="#fff" d="M399.082 637.55h2.172V204.497h-2.172zm0 0"/><path fill="#333650" d="M359.93 204.309h641.375v-35.72H359.93zm0 0"/><path fill="#ed3947" d="M924.977 186.453c0 6.692-5.43 12.121-12.13 12.121-6.702 0-12.132-5.43-12.132-12.12 0-6.7 5.43-12.13 12.133-12.13 6.699 0 12.129 5.43 12.129 12.13"/><path fill="#80cc28" d="M956.922 186.453c0 6.692-5.422 12.121-12.121 12.121-6.703 0-12.14-5.43-12.14-12.12 0-6.7 5.437-12.13 12.14-12.13 6.699 0 12.12 5.43 12.12 12.13"/><path fill="#ebb72e" d="M988.578 186.453c0 6.692-5.43 12.121-12.121 12.121-6.7 0-12.129-5.43-12.129-12.12 0-6.7 5.43-12.13 12.129-12.13 6.691 0 12.121 5.43 12.121 12.13"/><path fill="#fff" d="M369.398 221.063h21.297v-6.512h-21.297zm0 21.297h21.297v-6.505h-21.297zm0 21.292h21.297v-6.504h-21.297zm0 21.305h21.297v-6.508h-21.297zm0 21.293h21.297v-6.504h-21.297zm0 21.305h21.297v-6.516h-21.297zm0 21.293h21.297v-6.504h-21.297zm0 21.304h21.297v-6.515h-21.297zm0 21.293h21.297v-6.504h-21.297zm0 21.293h21.297v-6.504h-21.297zm0 21.305h21.297v-6.504h-21.297zm0 21.293h21.297v-6.504h-21.297zm0 21.304h21.297v-6.503h-21.297zm0 21.294h21.297v-6.504h-21.297zm0 21.304h21.297v-6.515h-21.297zm0 21.293h21.297v-6.511h-21.297zm0 21.297h21.297v-6.508h-21.297zm0 21.301h21.297v-6.504h-21.297zm0 21.293h21.297v-6.504h-21.297zm0 21.297h21.297v-6.504h-21.297zm0 0"/><path fill="#ed3947" d="M413.18 221.063h82.84v-6.512h-82.84zm86.117 237.527h82.84v-6.504h-82.84zm0-24.547h31.371v-6.504h-31.371zm0 0"/><path fill="#3bbec5" d="M413.18 242.36h31.351v-6.505H413.18zm0 21.292h46.449v-6.504h-46.45zm0 0"/><path fill="#fff" d="M467.617 284.957h93.184v-6.508h-93.184zm275.117 0H607.832v-6.508h134.902v6.508m-149.101 0h-23.957v-6.508h23.957v6.508m-105.61 39.336h93.192v-6.504h-93.192zm275.129 0H628.246v-6.504h134.906v6.504m-149.102 0h-23.964v-6.504h23.965v6.504m-126.028-21.297h59.461v-6.504h-59.46zm70.117-6.504v6.504h23.075v-6.504H558.14m117.15 6.504h-47.044v-6.504h47.043v6.504m-61.239 0h-23.964v-6.504h23.965v6.504M564.063 531.52h59.457v-6.516h-59.457zm70.113 0h23.078v-6.516h-23.078zm70.117 0h47.031v-6.516h-47.031zm-38.172 0h23.965v-6.516H666.12zm0 0"/><path fill="#00adef" d="M467.617 263.652h15.969v-6.504h-15.969zm0 0"/><path fill="#3bbec5" d="M499.898 476.64h31.352v-6.503h-31.352zm0 21.294h46.45v-6.504h-46.45zm0 0"/><path fill="#00adef" d="M554.328 497.934h15.977v-6.504h-15.977zm0 0"/><path fill="#3bbec5" d="M499.898 590.523h31.352v-6.503h-31.352zm0 21.297h46.45v-6.508h-46.45zm0 0"/><path fill="#00adef" d="M554.328 611.82h15.977v-6.508h-15.977zm0 0"/><path fill="#3bbec5" d="M413.18 370.152h46.449v-6.515h-46.45zm0 0"/><path fill="#00adef" d="M467.617 370.152h15.969v-6.515h-15.969zm0 0"/><path fill="#80cc28" d="M529.14 221.063h-21.296v-6.512h21.297v6.512M467.617 397.95h90.524v-6.505h-90.524zm0 0"/><path fill="#fff" d="M488.023 348.848h136.684v-6.504H488.023zm249.395 0h-104.73v-6.504h104.73v6.504M564.063 555.32h79.273v-6.504h-79.274zm87.558 0h111.234v-6.504H651.621zm-87.558 21.305h34.316v-6.516h-34.317zm44.371 0h34.91v-6.516h-34.91zm134.3 0h20.121v-6.516h-20.12zm-91.113 0h83.422v-6.516h-83.422zm420.188 111.57h.02-.02m.101 0h.027-.027m.05 0h.028-.027m.05 0h.036-.035m.05 0h.036-.035m.05 0h.035-.035m.051 0h.035-.035m-798.16-547.394"/><path fill="#352f38" d="M1071.758 688.195H289.473c-8.54 0-15.47-6.91-15.47-15.457V140.801c0-4.262 1.731-8.133 4.536-10.93l44.836 30.816h-11.273a5.06 5.06 0 00-5.059 5.06V647.8c0 2.785 2.27 5.047 5.059 5.047h727.527l43.762 30.078c-.059.07-.13.144-.188.215a15.44 15.44 0 01-10.996 5.054h-.449"/><path fill="#354b67" d="M1039.629 652.848H312.102c-2.79 0-5.059-2.262-5.059-5.047V165.746a5.06 5.06 0 015.059-5.059h11.273l36.555 25.114v18.508h26.93l.269.187h-27.2v433.055h641.376v-11.035l38.324 26.332"/><path fill="#2f2d3b" d="M1001.305 637.55H401.254V214.196l31.512 21.66H413.18v6.504h29.054l25.383 17.442v3.851h5.613l21.528 14.797h-27.14v6.508h36.6l16.794 11.535h-32.989v6.504h42.457l21.536 14.793h-63.993v6.504h73.454l26.261 18.05h-99.715v6.505h109.184l404.098 277.668v11.035m-446.977-32.239v6.508h15.977v-6.508h-15.977m-54.43 0v6.508h46.45v-6.508h-46.45m0-21.292v6.503h31.352v-6.503h-31.352m242.836-13.91v6.515h20.121v-6.516h-20.12m-91.114 0v6.516h83.422v-6.516h-83.422m-43.187 0v6.516h34.902v-6.516h-34.902m-44.371 0v6.516h34.316v-6.516h-34.317m87.56-21.293v6.504h111.233v-6.504H651.621m-87.558 0v6.504h79.273v-6.504h-79.274m140.231-23.812v6.516h47.031v-6.516h-47.031m-38.172 0v6.516h23.965v-6.516H666.12m-31.945 0v6.516h23.07v-6.516h-23.07m-70.114 0v6.516h59.458v-6.516h-59.457m-9.735-33.574v6.504h15.977v-6.504h-15.977m-54.43 0v6.504h46.45v-6.504h-46.45m0-21.305v6.516h31.352v-6.516h-31.352m-.601-18.04v6.505h82.84v-6.504h-82.84m0-24.547v6.504h31.371v-6.504h-31.371m-31.68-36.094v6.504h90.524v-6.504h-90.524m0-27.808v6.515h15.969v-6.515h-15.969m-54.437 0v6.515h46.449v-6.515h-46.45m0-106.489v6.504h46.45v-6.504h-46.45m-14.097 380.403H359.93V204.496h27.199l11.953 8.207v424.848m-29.684-18.336v6.504h21.297v-6.504h-21.297m0-21.297v6.504h21.297v-6.504h-21.297m0-21.293v6.504h21.297v-6.504h-21.297m0-21.305v6.508h21.297v-6.508h-21.297m0-21.293v6.504h21.297v-6.504h-21.297m0-21.304v6.515h21.297v-6.515h-21.297m0-21.293v6.504h21.297v-6.504h-21.297m0-21.305v6.516h21.297v-6.516h-21.297m0-21.293v6.504h21.297v-6.504h-21.297m0-21.293v6.504h21.297v-6.504h-21.297m0-21.305v6.504h21.297v-6.504h-21.297m0-21.3v6.511h21.297v-6.511h-21.297m0-21.297v6.515h21.297v-6.515h-21.297m0-21.293v6.504h21.297v-6.504h-21.297m0-21.305v6.516h21.297v-6.516h-21.297m0-21.293v6.504h21.297v-6.504h-21.297m0-21.297v6.508h21.297v-6.508h-21.297m0-21.3v6.503h21.297v-6.504h-21.297m0-21.293v6.504h21.297v-6.504h-21.297m0-21.304v6.512h21.297v-6.512h-21.297"/><path fill="#fff" d="M401.254 637.55h-2.172V212.704l2.172 1.492v423.356"/><path fill="#4e4d67" d="M386.86 204.309h-26.93V185.8l26.93 18.508"/><path fill="#fff" d="M369.398 221.063h21.297v-6.512h-21.297zm0 21.297h21.297v-6.505h-21.297zm0 21.292h21.297v-6.504h-21.297zm0 21.305h21.297v-6.508h-21.297zm0 21.293h21.297v-6.504h-21.297zm0 21.305h21.297v-6.516h-21.297zm0 21.293h21.297v-6.504h-21.297zm0 21.304h21.297v-6.515h-21.297zm0 21.293h21.297v-6.504h-21.297zm0 21.293h21.297v-6.504h-21.297zm0 21.305h21.297v-6.504h-21.297zm0 21.293h21.297v-6.504h-21.297zm0 21.304h21.297v-6.503h-21.297zm0 21.294h21.297v-6.504h-21.297zm0 21.304h21.297v-6.515h-21.297zm0 21.293h21.297v-6.511h-21.297zm0 21.297h21.297v-6.508h-21.297zm0 21.301h21.297v-6.504h-21.297zm0 21.293h21.297v-6.504h-21.297zm0 21.297h21.297v-6.504h-21.297zm0 0"/><path fill="#f05d5e" d="M499.297 458.59h82.84v-6.504h-82.84zm0-24.547h31.371v-6.504h-31.371zm0 0"/><path fill="#62cbcd" d="M442.234 242.36H413.18v-6.505h19.586l9.468 6.504m-29.054 21.293h46.449v-6.504h-46.45zm0 0"/><path fill="#fff" d="M504.219 284.957h-36.602v-6.508h27.14l9.462 6.508m57.258 39.336h-73.454v-6.504h63.993l9.46 6.504m-30.996-21.297h-42.457v-6.504h32.989l9.468 6.504m33.583 228.524h59.457v-6.516h-59.457zm70.113 0h23.078v-6.516h-23.078zm70.117 0h47.031v-6.516h-47.031zm-38.172 0h23.965v-6.516H666.12zm0 0"/><path fill="#33bdf2" d="M473.23 263.652h-5.613v-3.851l5.613 3.851"/><path fill="#62cbcd" d="M499.898 476.64h31.352v-6.503h-31.352zm0 21.294h46.45v-6.504h-46.45zm0 0"/><path fill="#33bdf2" d="M554.328 497.934h15.977v-6.504h-15.977zm0 0"/><path fill="#62cbcd" d="M499.898 590.523h31.352v-6.503h-31.352zm0 21.297h46.45v-6.508h-46.45zm0 0"/><path fill="#33bdf2" d="M554.328 611.82h15.977v-6.508h-15.977zm0 0"/><path fill="#62cbcd" d="M413.18 370.152h46.449v-6.515h-46.45zm0 0"/><path fill="#33bdf2" d="M467.617 370.152h15.969v-6.515h-15.969zm0 0"/><path fill="#99d64b" d="M467.617 397.95h90.524v-6.505h-90.524zm0 0"/><path fill="#fff" d="M597.207 348.848H488.023v-6.504h99.715l9.469 6.504M564.063 555.32h79.273v-6.504h-79.274zm87.558 0h111.234v-6.504H651.621zm-87.558 21.305h34.316v-6.516h-34.317zm44.371 0h34.91v-6.516h-34.91zm134.3 0h20.121v-6.516h-20.12zm-91.113 0h83.422v-6.516h-83.422zm0 0"/><path fill="#1a1a1a" d="M875.586 478.11h350.309v230.83h-350.31zm0 0"/><path fill="#fff" d="M1230.102 468.16H874.484c-6.777 0-12.261 5.496-12.261 12.262v239.82h380.148V480.43c0-6.774-5.492-12.27-12.27-12.27zm-6.989 219.184v15.785h-341.64V485.285h341.64zm0 0"/><g clip-path="url(#c)"><path fill="#004a75" d="M1243.785 721.664H860.801V480.43c0-7.547 6.136-13.684 13.683-13.684h355.625c7.547 0 13.684 6.137 13.684 13.684v241.234zm-380.152-2.832h377.32V480.43c0-5.977-4.867-10.84-10.844-10.84H874.484c-5.976 0-10.84 4.863-10.84 10.84v238.402zm360.902-14.293H880.051V483.875h344.484zm-341.64-2.832h338.808v-215H882.895zm0 0"/></g><path fill="#fff" d="M1301.121 775.145l-58.95-59.215h-379.75l-58.956 59.215v6.738c0 .68.558 1.238 1.238 1.238h1.512c.48 2.672 2.812 4.715 5.629 4.715h480.898a5.709 5.709 0 005.625-4.715h1.512a1.24 1.24 0 001.242-1.238zm0 0"/><g clip-path="url(#d)"><path fill="#004a75" d="M1292.742 789.246H811.844a7.141 7.141 0 01-6.719-4.71h-.422a2.662 2.662 0 01-2.66-2.665v-7.316l59.777-60.047h380.934l.418.422 59.371 59.633v7.32a2.662 2.662 0 01-2.664 2.66h-.418a7.145 7.145 0 01-6.719 4.703zM804.875 781.7h2.523l.211 1.172a4.302 4.302 0 004.235 3.543h480.898a4.302 4.302 0 004.235-3.543l.21-1.172h2.524v-5.965l-58.129-58.382H863.004l-58.117 58.382zm0 0"/></g><path fill="#ced7db" d="M850.64 752.035h32.915l23.16-29.82h-28.387zm347.227-29.82l23.164 29.82h32.914l-27.687-29.82zm-97.215 36.473c-.582-2.2-3.515-3.942-6.566-3.942H1010.5c-3.043 0-5.977 1.742-6.566 3.942l-1.59 5.996c-.64 2.402 1.488 4.406 4.785 4.406h90.328c3.293 0 5.426-2.004 4.785-4.406zm0 0"/><path fill="#b3c0c7" d="M893.305 752.035h317.906l-21.762-29.82H915.137zm0 0"/><path fill="#004a75" d="M803.465 773.723h497.656v2.832H803.465zm0 0"/><path fill="#798884" d="M1007.297 494.152h2.441v4.825h-2.441zm-1.609 8.148h4.042v4.825h-4.043zm0 8.138h4.042v4.824h-4.043zm0 8.148h4.042v4.824h-4.043zm0 8.137h4.042v4.824h-4.043zm0 8.148h4.042v4.824h-4.043zm0 8.137h4.042v4.824h-4.043zm0 8.148h4.042v4.824h-4.043zm0 8.149h4.042v4.824h-4.043zm-2.083 8.136h6.133v4.825h-6.133zm0 8.149h6.133v4.824h-6.133zm0 8.137h6.133v4.824h-6.133zm0 8.148h6.133v4.824h-6.133zm0 8.137h6.133v4.824h-6.133zm0 8.148h6.133v4.824h-6.133zm0 8.149h6.133v4.824h-6.133zm0 8.136h6.133v4.825h-6.133zm0 8.149h6.133v4.824h-6.133zm0 8.144h6.133v4.824h-6.133zm0 8.141h6.133v4.824h-6.133zm0 8.144h6.133v4.825h-6.133zm0 8.141h6.133v4.824h-6.133zm0 8.145h6.133v4.824h-6.133zm0 8.148h6.133v4.824h-6.133zm0 8.137h6.133v4.824h-6.133zm0 0"/><g clip-path="url(#e)"><g clip-path="url(#f)"><path fill="url(#g)" d="M1017.54 495.004v3.125h42.382v-3.125zm0 0"/></g></g><g clip-path="url(#h)"><g clip-path="url(#i)"><path fill="url(#j)" d="M1017.54 503.152v3.121h26.136v-3.12zm0 0"/></g></g><g clip-path="url(#k)"><g clip-path="url(#l)"><path fill="url(#m)" d="M1042.844 519.438v3.12h34.695v-3.12zm0 0"/></g></g><path fill="#96f755" d="M1101.73 522.559h-15.445c-.87 0-1.582-.7-1.582-1.559 0-.863.711-1.563 1.582-1.563h15.445c.872 0 1.582.7 1.582 1.563 0 .86-.71 1.559-1.582 1.559zm0 0"/><g clip-path="url(#n)"><g clip-path="url(#o)"><path fill="url(#p)" d="M1028.828 543.871v3.121h16.469v-3.12zm0 0"/></g></g><g clip-path="url(#q)"><g clip-path="url(#r)"><path fill="url(#s)" d="M1054.484 568.3v3.126h26.086V568.3zm0 0"/></g></g><path fill="#fff" d="M1114.684 571.426h-25.657a1.575 1.575 0 01-1.578-1.563c0-.86.711-1.562 1.578-1.562h25.657c.87 0 1.582.703 1.582 1.562 0 .86-.711 1.563-1.582 1.563zm0 0"/><g clip-path="url(#t)"><g clip-path="url(#u)"><path fill="url(#v)" d="M1124.316 568.3v3.126h23.352V568.3zm0 0"/></g></g><g clip-path="url(#w)"><g clip-path="url(#x)"><path fill="url(#y)" d="M1067.277 576.441v3.121h27.508v-3.12zm0 0"/></g></g><g clip-path="url(#z)"><g clip-path="url(#A)"><path fill="url(#B)" d="M1054.035 592.727v3.12h27.508v-3.12zm0 0"/></g></g><g clip-path="url(#C)"><g clip-path="url(#D)"><path fill="url(#E)" d="M1054.613 617.156v3.125h21.004v-3.125zm0 0"/></g></g><g clip-path="url(#F)"><g clip-path="url(#G)"><path fill="url(#H)" d="M1042.684 625.297v3.121h21v-3.121zm0 0"/></g></g><g clip-path="url(#I)"><g clip-path="url(#J)"><path fill="url(#K)" d="M1042.684 633.441v3.125h21v-3.125zm0 0"/></g></g><path fill="#fff" d="M1102.094 636.566h-30.703a1.576 1.576 0 01-1.582-1.562c0-.86.71-1.563 1.582-1.563h30.703c.87 0 1.582.704 1.582 1.563 0 .86-.711 1.562-1.582 1.562zm0 0"/><g clip-path="url(#L)"><g clip-path="url(#M)"><path fill="url(#N)" d="M1107.988 633.441v3.125h25.434v-3.125zm0 0"/></g></g><path fill="#96f755" d="M1149.93 636.566h-6.547a1.576 1.576 0 01-1.582-1.562c0-.86.71-1.563 1.582-1.563h6.547c.87 0 1.582.704 1.582 1.563 0 .86-.711 1.562-1.582 1.562zm0 0"/><g clip-path="url(#O)"><g clip-path="url(#P)"><path fill="url(#Q)" d="M1042.691 609.012v3.12h33.825v-3.12zm0 0"/></g></g><g clip-path="url(#R)"><g clip-path="url(#S)"><path fill="url(#T)" d="M1081.531 617.156v3.125h121.992v-3.125zm0 0"/></g></g><path fill="#fff" d="M1114.664 612.133h-30.66c-.871 0-1.582-.7-1.582-1.563 0-.86.71-1.558 1.582-1.558h30.66c.871 0 1.582.699 1.582 1.558 0 .864-.7 1.563-1.582 1.563zm0 0"/><g clip-path="url(#U)"><g clip-path="url(#V)"><path fill="url(#W)" d="M1120.25 609.012v3.12h28.078v-3.12zm0 0"/></g></g><g clip-path="url(#X)"><g clip-path="url(#Y)"><path fill="url(#Z)" d="M1042.805 600.871v3.125h17.918v-3.125zm0 0"/></g></g><g clip-path="url(#aa)"><g clip-path="url(#ab)"><path fill="url(#ac)" d="M1066.816 584.586v3.125h36.918v-3.125zm0 0"/></g></g><path fill="#fff" d="M1139.941 579.563h-38.3c-.871 0-1.582-.7-1.582-1.563 0-.86.71-1.559 1.582-1.559h38.308c.871 0 1.582.7 1.582 1.559a1.58 1.58 0 01-1.59 1.563zm0 0"/><g clip-path="url(#ad)"><g clip-path="url(#ae)"><path fill="url(#af)" d="M1145.688 576.441v3.121h29.277v-3.12zm0 0"/></g></g><path fill="#96f755" d="M1190.34 506.273h-9.82c-.872 0-1.582-.699-1.582-1.558 0-.863.71-1.563 1.582-1.563h9.82c.87 0 1.582.7 1.582 1.563 0 .86-.711 1.558-1.582 1.558zm0 0"/><path fill="#fff" d="M1201.512 530.707h-28.82a1.57 1.57 0 01-1.579-1.562c0-.86.707-1.56 1.578-1.56h28.82c.872 0 1.583.7 1.583 1.56 0 .863-.711 1.562-1.582 1.562zm0 0"/><path fill="#96f755" d="M1165.195 530.707h-8.968c-.872 0-1.582-.7-1.582-1.562 0-.86.71-1.56 1.582-1.56h8.968c.871 0 1.582.7 1.582 1.56 0 .863-.71 1.562-1.582 1.562zm-62.441 32.57h-5.375a1.574 1.574 0 01-1.582-1.562c0-.86.71-1.559 1.582-1.559h5.375c.871 0 1.582.7 1.582 1.559a1.581 1.581 0 01-1.582 1.562zm61.449 8.149h-7.164a1.576 1.576 0 01-1.582-1.563c0-.86.711-1.562 1.582-1.562h7.164c.871 0 1.582.703 1.582 1.562 0 .86-.71 1.563-1.582 1.563zm23.477 8.137h-7.168c-.871 0-1.582-.7-1.582-1.563 0-.86.71-1.559 1.582-1.559h7.168c.867 0 1.578.7 1.578 1.559 0 .863-.711 1.563-1.578 1.563zm-69.75 8.147h-7.168a1.576 1.576 0 01-1.582-1.562c0-.859.71-1.562 1.582-1.562h7.168c.87 0 1.578.703 1.578 1.562 0 .86-.707 1.563-1.578 1.563zm44.152 24.423h-7.168c-.871 0-1.582-.7-1.582-1.563 0-.86.711-1.558 1.582-1.558h7.168c.871 0 1.582.699 1.582 1.558 0 .864-.71 1.563-1.582 1.563zm0 0"/><g clip-path="url(#ag)"><g clip-path="url(#ah)"><path fill="url(#ai)" d="M1144.977 503.152v3.121h26.136v-3.12zm0 0"/></g></g><g clip-path="url(#aj)"><g clip-path="url(#ak)"><path fill="url(#al)" d="M1029.77 511.3v3.122h26.136V511.3zm0 0"/></g></g><g clip-path="url(#am)"><g clip-path="url(#an)"><path fill="url(#ao)" d="M1043.676 527.586v3.121h26.133v-3.121zm0 0"/></g></g><path fill="#fff" d="M1135.285 506.273h-79c-.87 0-1.582-.699-1.582-1.558 0-.863.711-1.563 1.582-1.563h79c.871 0 1.582.7 1.582 1.563 0 .86-.71 1.558-1.582 1.558zm11.582 24.434h-67.746c-.871 0-1.582-.7-1.582-1.562 0-.86.711-1.56 1.582-1.56h67.746c.871 0 1.582.7 1.582 1.56 0 .863-.71 1.562-1.582 1.562zm0 0"/><g clip-path="url(#ap)"><g clip-path="url(#aq)"><path fill="url(#ar)" d="M1028.559 552.008v3.12h31.632v-3.12zm0 0"/></g></g><g clip-path="url(#as)"><g clip-path="url(#at)"><path fill="url(#au)" d="M1042.832 560.156v3.121h47.98v-3.12zm0 0"/></g></g><g clip-path="url(#av)"><g clip-path="url(#aw)"><path fill="url(#ax)" d="M1068.277 552.008v3.12h70.91v-3.12zm0 0"/></g></g><g clip-path="url(#ay)"><g clip-path="url(#az)"><path fill="url(#aA)" d="M1125.164 584.586v3.125h78.36v-3.125zm0 0"/></g></g><g clip-path="url(#aB)"><g clip-path="url(#aC)"><path fill="url(#aD)" d="M1042.844 535.723v3.12h73.422v-3.12zm0 0"/></g></g><g clip-path="url(#aE)"><g clip-path="url(#aF)"><path fill="url(#aG)" d="M1054.484 658.426v3.125h26.086v-3.125zm0 0"/></g></g><path fill="#fff" d="M1114.684 661.55h-25.657a1.575 1.575 0 01-1.578-1.562c0-.863.711-1.562 1.578-1.562h25.657c.87 0 1.582.699 1.582 1.562 0 .86-.711 1.563-1.582 1.563zm0 0"/><g clip-path="url(#aH)"><g clip-path="url(#aI)"><path fill="url(#aJ)" d="M1124.316 658.426v3.125h23.352v-3.125zm0 0"/></g></g><g clip-path="url(#aK)"><g clip-path="url(#aL)"><path fill="url(#aM)" d="M1067.277 666.563v3.125h27.508v-3.125zm0 0"/></g></g><g clip-path="url(#aN)"><g clip-path="url(#aO)"><path fill="url(#aP)" d="M1054.035 682.848v3.125h27.508v-3.125zm0 0"/></g></g><g clip-path="url(#aQ)"><g clip-path="url(#aR)"><path fill="url(#aS)" d="M1042.805 690.996v3.125h17.918v-3.125zm0 0"/></g></g><g clip-path="url(#aT)"><g clip-path="url(#aU)"><path fill="url(#aV)" d="M1066.816 674.71v3.126h36.918v-3.125zm0 0"/></g></g><path fill="#fff" d="M1139.941 669.688h-38.3a1.576 1.576 0 01-1.582-1.563c0-.86.71-1.563 1.582-1.563h38.308c.871 0 1.582.704 1.582 1.563a1.583 1.583 0 01-1.59 1.563zm0 0"/><g clip-path="url(#aW)"><g clip-path="url(#aX)"><path fill="url(#aY)" d="M1145.688 666.563v3.125h29.277v-3.125zm0 0"/></g></g><path fill="#96f755" d="M1102.754 653.402h-5.375a1.576 1.576 0 01-1.582-1.562c0-.86.71-1.563 1.582-1.563h5.375c.871 0 1.582.703 1.582 1.563a1.584 1.584 0 01-1.582 1.562zm61.449 8.148h-7.164a1.576 1.576 0 01-1.582-1.562c0-.863.711-1.562 1.582-1.562h7.164c.871 0 1.582.699 1.582 1.562 0 .86-.71 1.563-1.582 1.563zm23.477 8.138h-7.168a1.576 1.576 0 01-1.582-1.563c0-.86.71-1.563 1.582-1.563h7.168c.867 0 1.578.704 1.578 1.563 0 .86-.711 1.563-1.578 1.563zm-69.75 8.148h-7.168a1.576 1.576 0 01-1.582-1.563c0-.863.71-1.562 1.582-1.562h7.168c.87 0 1.578.7 1.578 1.562 0 .86-.707 1.563-1.578 1.563zm0 0"/><g clip-path="url(#aZ)"><g clip-path="url(#ba)"><path fill="url(#bb)" d="M1028.559 642.14v3.126h31.632v-3.125zm0 0"/></g></g><g clip-path="url(#bc)"><g clip-path="url(#bd)"><path fill="url(#be)" d="M1042.832 650.277v3.125h47.98v-3.125zm0 0"/></g></g><g clip-path="url(#bf)"><g clip-path="url(#bg)"><path fill="url(#bh)" d="M1068.277 642.14v3.126h70.91v-3.125zm0 0"/></g></g><g clip-path="url(#bi)"><g clip-path="url(#bj)"><path fill="url(#bk)" d="M1125.164 674.71v3.126h78.36v-3.125zm0 0"/></g></g><path fill="#798884" d="M903.934 494.152h1.66v3.286h-1.66zm-1.09 5.548h2.75v3.28h-2.75zm0 5.542h2.75v3.285h-2.75zm0 5.535h2.75v3.286h-2.75zm0 5.547h2.75v3.281h-2.75zm0 5.547h2.75v3.281h-2.75zm0 5.543h2.75v3.285h-2.75zm0 5.536h2.75v3.284h-2.75zm0 5.546h2.75v3.281h-2.75zm-1.422 5.544h4.172v3.284h-4.172zm0 5.546h4.172v3.281h-4.172zm0 5.535h4.172v3.281h-4.172zm0 5.543h4.172v3.285h-4.172zm0 5.546h4.172v3.282h-4.172zm0 5.544h4.172v3.285h-4.172zm0 5.536h4.172v3.284h-4.172zm0 5.546h4.172v3.281h-4.172zm0 5.547h4.172v3.281h-4.172zm0 5.543h4.172v3.285h-4.172zm0 5.547h4.172v3.28h-4.172zm0 5.543h4.172v3.285h-4.172zm0 5.534h4.172v3.286h-4.172zm0 5.548h4.172v3.28h-4.172zm0 5.542h4.172v3.286h-4.172zm0 5.548h4.172v3.28h-4.172zm0 5.355h4.172v3.281h-4.172zm0 5.543h4.172v3.285h-4.172zm0 5.547h4.172v3.281h-4.172zm0 5.543h4.172v3.285h-4.172zm0 5.534h4.172v3.286h-4.172zm0 5.548h4.172v3.281h-4.172zm0 5.547h4.172v3.28h-4.172zm0 5.543h4.172v3.285h-4.172zm0 5.535h4.172v3.285h-4.172zm0 0"/><g clip-path="url(#bl)"><g clip-path="url(#bm)"><path fill="url(#bn)" d="M910.91 494.742v2.125h28.84v-2.125zm0 0"/></g></g><g clip-path="url(#bo)"><g clip-path="url(#bp)"><path fill="url(#bq)" d="M910.91 500.277v2.125h17.778v-2.125zm0 0"/></g></g><g clip-path="url(#br)"><g clip-path="url(#bs)"><path fill="url(#bt)" d="M928.137 511.371v2.121h23.605v-2.12zm0 0"/></g></g><g clip-path="url(#bu)"><g clip-path="url(#bv)"><path fill="url(#bw)" d="M918.61 527.996v2.121h11.19v-2.12zm0 0"/></g></g><g clip-path="url(#bx)"><g clip-path="url(#by)"><path fill="url(#bz)" d="M936.055 544.621v2.121h17.75v-2.12zm0 0"/></g></g><g clip-path="url(#bA)"><g clip-path="url(#bB)"><path fill="url(#bC)" d="M944.754 550.164v2.125h18.73v-2.125zm0 0"/></g></g><g clip-path="url(#bD)"><g clip-path="url(#bE)"><path fill="url(#bF)" d="M935.746 561.254v2.125h18.719v-2.125zm0 0"/></g></g><g clip-path="url(#bG)"><g clip-path="url(#bH)"><path fill="url(#bI)" d="M936.145 577.883v2.12h14.296v-2.12zm0 0"/></g></g><g clip-path="url(#bJ)"><g clip-path="url(#bK)"><path fill="url(#bL)" d="M928.027 583.426v2.12h14.285v-2.12zm0 0"/></g></g><g clip-path="url(#bM)"><g clip-path="url(#bN)"><path fill="url(#bO)" d="M928.027 588.96v2.122h14.285v-2.121zm0 0"/></g></g><g clip-path="url(#bP)"><g clip-path="url(#bQ)"><path fill="url(#bR)" d="M946.496 588.96v2.122h23.035v-2.121zm0 0"/></g></g><g clip-path="url(#bS)"><g clip-path="url(#bT)"><path fill="url(#bU)" d="M928.027 572.336v2.121h23.016v-2.121zm0 0"/></g></g><g clip-path="url(#bV)"><g clip-path="url(#bW)"><path fill="url(#bX)" d="M955.074 572.336v2.121h23.016v-2.121zm0 0"/></g></g><g clip-path="url(#bY)"><g clip-path="url(#bZ)"><path fill="url(#ca)" d="M928.11 566.79v2.124h12.19v-2.125zm0 0"/></g></g><g clip-path="url(#cb)"><g clip-path="url(#cc)"><path fill="url(#cd)" d="M944.453 555.71v2.122h25.125v-2.121zm0 0"/></g></g><g clip-path="url(#ce)"><g clip-path="url(#cf)"><path fill="url(#cg)" d="M973.285 555.71v2.122h7.024v-2.121zm0 0"/></g></g><g clip-path="url(#ch)"><g clip-path="url(#ci)"><path fill="url(#cj)" d="M919.238 505.824v2.121h17.778v-2.12zm0 0"/></g></g><g clip-path="url(#ck)"><g clip-path="url(#cl)"><path fill="url(#cm)" d="M928.7 516.914v2.121h17.788v-2.12zm0 0"/></g></g><g clip-path="url(#cn)"><g clip-path="url(#co)"><path fill="url(#cp)" d="M910.91 655.512v2.125h28.84v-2.125zm0 0"/></g></g><g clip-path="url(#cq)"><g clip-path="url(#cr)"><path fill="url(#cs)" d="M910.91 661.059v2.12h17.778v-2.12zm0 0"/></g></g><g clip-path="url(#ct)"><g clip-path="url(#cu)"><path fill="url(#cv)" d="M928.137 672.14v2.122h23.605v-2.121zm0 0"/></g></g><g clip-path="url(#cw)"><g clip-path="url(#cx)"><path fill="url(#cy)" d="M919.238 666.605v2.122h17.778v-2.122zm0 0"/></g></g><g clip-path="url(#cz)"><g clip-path="url(#cA)"><path fill="url(#cB)" d="M928.7 677.684v2.12h17.788v-2.12zm0 0"/></g></g><g clip-path="url(#cC)"><g clip-path="url(#cD)"><path fill="url(#cE)" d="M918.41 533.54v2.12h21.52v-2.12zm0 0"/></g></g><g clip-path="url(#cF)"><g clip-path="url(#cG)"><path fill="url(#cH)" d="M928.129 539.086v2.121h32.652v-2.121zm0 0"/></g></g><g clip-path="url(#cI)"><g clip-path="url(#cJ)"><path fill="url(#cK)" d="M936.055 605.676v2.125h17.75v-2.125zm0 0"/></g></g><g clip-path="url(#cL)"><g clip-path="url(#cM)"><path fill="url(#cN)" d="M944.754 611.223v2.12h18.73v-2.12zm0 0"/></g></g><g clip-path="url(#cO)"><g clip-path="url(#cP)"><path fill="url(#cQ)" d="M935.746 622.313v2.12h18.719v-2.12zm0 0"/></g></g><g clip-path="url(#cR)"><g clip-path="url(#cS)"><path fill="url(#cT)" d="M923.445 638.938v2.12h14.282v-2.12zm0 0"/></g></g><g clip-path="url(#cU)"><g clip-path="url(#cV)"><path fill="url(#cW)" d="M915.316 644.484v2.121h14.293v-2.12zm0 0"/></g></g><g clip-path="url(#cX)"><g clip-path="url(#cY)"><path fill="url(#cZ)" d="M915.316 650.02v2.12h14.293v-2.12zm0 0"/></g></g><g clip-path="url(#da)"><g clip-path="url(#db)"><path fill="url(#dc)" d="M933.785 650.02v2.12h23.043v-2.12zm0 0"/></g></g><g clip-path="url(#dd)"><g clip-path="url(#de)"><path fill="url(#df)" d="M915.316 633.395v2.12h23.024v-2.12zm0 0"/></g></g><g clip-path="url(#dg)"><g clip-path="url(#dh)"><path fill="url(#di)" d="M942.363 633.395v2.12h23.024v-2.12zm0 0"/></g></g><g clip-path="url(#dj)"><g clip-path="url(#dk)"><path fill="url(#dl)" d="M928.11 627.848v2.12h12.19v-2.12zm0 0"/></g></g><g clip-path="url(#dm)"><g clip-path="url(#dn)"><path fill="url(#do)" d="M944.453 616.766v2.125h25.125v-2.125zm0 0"/></g></g><g clip-path="url(#dp)"><g clip-path="url(#dq)"><path fill="url(#dr)" d="M973.285 616.766v2.125h7.024v-2.125zm0 0"/></g></g><g clip-path="url(#ds)"><g clip-path="url(#dt)"><path fill="url(#du)" d="M918.41 594.598v2.12h21.52v-2.12zm0 0"/></g></g><g clip-path="url(#dv)"><g clip-path="url(#dw)"><path fill="url(#dx)" d="M928.129 600.14v2.126h32.652v-2.125zm0 0"/></g></g><g clip-path="url(#dy)"><g clip-path="url(#dz)"><path fill="url(#dA)" d="M928.117 522.45v2.12h27.89v-2.12zm0 0"/></g></g><g clip-path="url(#dB)"><path fill="#f7df1e" d="M1146.984 56.887h166.5v166.5h-166.5zm0 0"/></g><path d="M1190.762 196.027l12.742-7.707c2.46 4.356 4.695 8.043 10.062 8.043 5.137 0 8.383-2.015 8.383-9.832v-53.203h15.64v53.422c0 16.203-9.495 23.586-23.355 23.586-12.52 0-19.78-6.484-23.472-14.309m55.328-1.679l12.742-7.375c3.355 5.476 7.715 9.504 15.422 9.504 6.484 0 10.621-3.243 10.621-7.715 0-5.367-4.25-7.266-11.402-10.395l-3.91-1.676c-11.29-4.808-18.778-10.836-18.778-23.586 0-11.73 8.938-20.675 22.914-20.675 9.946 0 17.098 3.468 22.238 12.523l-12.183 7.824c-2.68-4.808-5.586-6.707-10.055-6.707-4.586 0-7.492 2.907-7.492 6.707 0 4.696 2.906 6.594 9.613 9.5l3.91 1.672c13.301 5.703 20.793 11.512 20.793 24.59 0 14.082-11.066 21.797-25.933 21.797-14.527 0-23.914-6.934-28.5-15.988"/><g clip-path="url(#dC)"><path fill="#e44d26" d="M203.898 189.43L190.04 344.516l-62.293 17.25-62.121-17.227-13.84-155.11 152.11-.003h.003zm0 0"/></g><path fill="#f16529" d="M127.84 348.582l50.34-13.941 11.84-132.528-62.18-.004zm0 0"/><path fill="#ebebeb" d="M100.902 240.156h26.938v-19.023H80.09l.457 5.105 4.68 52.422h42.613v-19.02h-25.2zm4.293 48.02H86.078l2.668 29.87 39.008 10.817.086-.023v-19.793l-.082.023-21.207-5.722zm0 0"/><g clip-path="url(#dD)"><path d="M65.938 147.273h9.675v9.555h8.852v-9.555h9.68V176.2h-9.676v-9.683h-8.856v9.683h-9.675zm0 0"/></g><g clip-path="url(#dE)"><path d="M106.871 156.867h-8.52v-9.594h26.723v9.594h-8.527V176.2h-9.676zm0 0"/></g><g clip-path="url(#dF)"><path d="M129.316 147.273h10.086l6.207 10.165 6.203-10.165h10.094V176.2h-9.636v-14.336l-6.66 10.285h-.165l-6.66-10.285V176.2h-9.469zm0 0"/></g><g clip-path="url(#dG)"><path d="M166.727 147.273h9.675v19.368h13.614v9.558h-23.29zm0 0"/></g><path fill="#fff" d="M127.777 278.66h23.45l-2.211 24.676-21.239 5.73v19.786l39.035-10.805.29-3.215 4.476-50.086.465-5.105h-44.266zm0-38.55v.046h45.996l.383-4.277.867-9.64.454-5.106h-47.7zm0 0"/><g clip-path="url(#dH)"><path fill="#264de4" d="M129.621 652.938l-63.648-17.649-14.184-158.91h155.852l-14.196 158.883-63.824 17.672zm0 0"/></g><path fill="#2965f1" d="M181.293 625.145l12.133-135.774h-63.707v150.055zm0 0"/><path fill="#ebebeb" d="M84.305 548.309l1.75 19.488h43.664v-19.488zm-3.512-39.454l1.773 19.493h47.153v-19.493zm48.926 90.067l-.086.027-21.73-5.867-1.391-15.543H86.926l2.734 30.606 39.965 11.082.094-.024zm0 0"/><g clip-path="url(#dI)"><path d="M88.469 433.191h23.633v9.872h-13.75v9.875h13.75v9.867H88.469zm0 0"/></g><g clip-path="url(#dJ)"><path d="M116.828 433.191h23.629v8.586h-13.746v1.715h13.746v19.742h-23.629v-9.011h13.75v-1.715h-13.75zm0 0"/></g><g clip-path="url(#dK)"><path d="M145.188 433.191h23.628v8.586h-13.75v1.715h13.75v19.742h-23.629v-9.011h13.747v-1.715h-13.746zm0 0"/></g><path fill="#fff" d="M175.008 548.309l3.515-39.454h-48.875v19.493h27.493l-1.77 19.96h-25.723v19.489h24.032l-2.27 25.273-21.762 5.871v20.274l40-11.07.293-3.297 4.59-51.309zm0 0"/><g clip-path="url(#dL)"><path fill="#00d8ff" d="M1292.715 323.7c-2-.688-4.074-1.337-6.215-1.954.355-1.43.68-2.84.965-4.226 4.7-22.766 1.629-41.11-8.88-47.149-10.077-5.789-26.55.246-43.19 14.68a129.184 129.184 0 00-4.805 4.398 120.786 120.786 0 00-3.2-2.945c-17.437-15.434-34.917-21.938-45.413-15.883-10.067 5.809-13.047 23.05-8.809 44.629.406 2.086.887 4.215 1.426 6.379-2.473.7-4.864 1.445-7.145 2.238-20.445 7.106-33.504 18.242-33.504 29.793 0 11.926 14.016 23.895 35.313 31.152 1.68.57 3.422 1.11 5.219 1.622-.582 2.34-1.09 4.632-1.516 6.875-4.04 21.203-.883 38.035 9.152 43.804 10.367 5.961 27.77-.168 44.711-14.925a102.156 102.156 0 004.028-3.7 145.192 145.192 0 005.222 4.746c16.414 14.075 32.625 19.758 42.649 13.977 10.355-5.977 13.73-24.07 9.355-46.07a112.287 112.287 0 00-1.156-5.141c1.223-.363 2.422-.738 3.59-1.121 22.14-7.317 36.539-19.129 36.539-31.219 0-11.594-13.48-22.805-34.336-29.96zm-4.797 53.374c-1.055.344-2.14.684-3.242 1.008-2.446-7.707-5.742-15.91-9.785-24.387 3.855-8.27 7.023-16.363 9.398-24.027 1.977.57 3.895 1.172 5.742 1.805 17.867 6.132 28.77 15.203 28.77 22.187 0 7.438-11.77 17.098-30.883 23.414zm-7.938 15.66c1.942 9.73 2.211 18.528.93 25.407-1.148 6.183-3.46 10.3-6.32 11.949-6.09 3.512-19.102-1.05-33.13-13.09a115.3 115.3 0 01-4.858-4.414c5.437-5.934 10.878-12.828 16.187-20.488 9.332-.82 18.149-2.176 26.152-4.016.391 1.586.739 3.137 1.04 4.652zm-80.199 36.746c-5.945 2.098-10.68 2.16-13.543.512-6.09-3.504-8.62-17.023-5.168-35.152.395-2.074.868-4.211 1.41-6.39 7.91 1.745 16.665 3 26.024 3.753 5.344 7.496 10.941 14.383 16.574 20.414a95.696 95.696 0 01-3.68 3.375c-7.492 6.535-15 11.164-21.617 13.488zm-27.851-52.453c-9.418-3.21-17.196-7.375-22.524-11.93-4.789-4.085-7.207-8.144-7.207-11.437 0-7.008 10.48-15.953 27.965-22.027a119.185 119.185 0 016.649-2.086c2.417 7.836 5.585 16.031 9.41 24.308-3.875 8.407-7.09 16.73-9.528 24.66a105.82 105.82 0 01-4.765-1.488zm9.336-63.355c-3.63-18.488-1.22-32.434 4.847-35.934 6.457-3.726 20.742 1.59 35.797 14.914.965.852 1.93 1.743 2.902 2.668-5.609 6.004-11.156 12.84-16.453 20.29-9.082.84-17.773 2.187-25.765 3.992-.504-2.016-.95-3.993-1.328-5.93zm83.293 20.504a258.286 258.286 0 00-5.871-9.63c6.164.778 12.062 1.81 17.605 3.071-1.656 5.317-3.73 10.875-6.176 16.574a279.023 279.023 0 00-5.558-10.015zm-33.97-32.98c3.81 4.109 7.618 8.695 11.368 13.675a241.236 241.236 0 00-22.824-.008c3.75-4.93 7.594-9.511 11.457-13.668zm-34.183 33.034a244.954 244.954 0 00-5.453 9.957c-2.402-5.68-4.457-11.265-6.133-16.66 5.508-1.226 11.383-2.23 17.504-2.992a241.506 241.506 0 00-5.918 9.695zm6.094 49.137c-6.324-.699-12.29-1.656-17.797-2.851 1.707-5.489 3.809-11.188 6.262-16.993a240.642 240.642 0 005.473 9.965 247.652 247.652 0 006.062 9.88zm28.316 23.332c-3.906-4.203-7.808-8.86-11.617-13.86 3.696.145 7.469.22 11.301.22 3.938 0 7.828-.09 11.652-.254-3.754 5.09-7.558 9.75-11.336 13.894zm39.375-43.469c2.582 5.868 4.762 11.536 6.489 16.934-5.598 1.27-11.649 2.293-18.016 3.059a279.1 279.1 0 005.93-9.797 258.738 258.738 0 005.597-10.196zm-12.746 6.09a267.187 267.187 0 01-9.265 14.895c-5.723.406-11.645.617-17.68.617-6.012 0-11.86-.18-17.484-.547a232.867 232.867 0 01-9.438-14.918 230.06 230.06 0 01-8.238-15.512 232.14 232.14 0 018.215-15.515h-.004a230.472 230.472 0 019.367-14.86 233.867 233.867 0 0135.195.004c3.2 4.7 6.313 9.657 9.309 14.809a269.988 269.988 0 018.32 15.45 244.88 244.88 0 01-8.297 15.577zm17.016-91.828c6.473 3.719 8.984 18.707 4.918 38.367a97.977 97.977 0 01-.867 3.825c-8.012-1.84-16.707-3.211-25.813-4.063-5.308-7.531-10.808-14.379-16.332-20.308a125.541 125.541 0 014.446-4.06c14.253-12.366 27.585-17.25 33.648-13.76zM1230.5 336.47c9.52 0 17.242 7.691 17.242 17.187 0 9.489-7.722 17.192-17.242 17.192s-17.246-7.703-17.246-17.192c0-9.496 7.726-17.187 17.246-17.187zm0 0"/></g></svg>