<svg xmlns="http://www.w3.org/2000/svg" width="48" viewBox="0 0 36 36" height="48" version="1.0"><defs><clipPath id="a"><path d="M.945.582h34.297v33.566H.945zm0 0"/></clipPath></defs><g clip-path="url(#a)"><path fill="#fff" d="M18.098.582C8.645.582.984 8.098.984 17.363c0 9.274 7.66 16.785 17.114 16.785 9.449 0 17.109-7.511 17.109-16.785 0-9.265-7.66-16.781-17.11-16.781zm0 30.906c-7.953 0-14.399-6.324-14.399-14.125 0-7.797 6.446-14.12 14.399-14.12 7.949 0 14.394 6.323 14.394 14.12 0 7.801-6.445 14.125-14.394 14.125zm0 0"/></g><path fill="#fff" d="M28.82 17.777l.008-.007a.57.57 0 00-.004-.81l-8.398-8.237a.576.576 0 00-.41-.168.574.574 0 00-.414.168l-.008.011a.543.543 0 00-.172.403v2.281a.55.55 0 00.172.402l5.648 5.543-5.648 5.547a.543.543 0 00-.172.402v2.282a.55.55 0 00.172.402l.008.012a.598.598 0 00.414.168.6.6 0 00.41-.168zm-21.246 0l-.004-.007a.566.566 0 010-.81l8.399-8.237a.583.583 0 01.41-.168c.152 0 .3.054.414.168l.012.011c.11.106.172.25.172.403v2.281a.565.565 0 01-.172.402l-5.653 5.543 5.653 5.547c.11.106.172.25.172.402v2.282a.565.565 0 01-.172.402l-.012.012a.599.599 0 01-.414.168.596.596 0 01-.41-.168zm0 0"/></svg>