<svg xmlns="http://www.w3.org/2000/svg" width="48" viewBox="0 0 36 36" height="48" version="1.0"><defs><clipPath id="a"><path d="M.488 0h35.024v35.027H.488zm0 0"/></clipPath><clipPath id="b"><path d="M3.988 3.602H32.45v29.035H3.99zm0 0"/></clipPath><clipPath id="c"><path d="M10.75 29.605h14.914v3.032H10.75zm0 0"/></clipPath><clipPath id="d"><path d="M16 2.043h16V32H16zm0 0"/></clipPath><clipPath id="e"><path d="M5 2.043h15V32H5zm0 0"/></clipPath></defs><g clip-path="url(#a)"><path fill="#99c9ff" d="M18 0C8.328 0 .488 7.84.488 17.512c0 9.675 7.84 17.515 17.512 17.515s17.512-7.84 17.512-17.515C35.512 7.84 27.672 0 18 0"/></g><g clip-path="url(#b)"><path fill="#a5dce1" d="M18.387 3.66c-7.86-.094-14.305 6.317-14.399 14.32-.09 8 6.207 14.563 14.063 14.657 7.86.093 14.304-6.317 14.394-14.32.094-8-6.203-14.563-14.058-14.657"/></g><path fill="#13131c" d="M21.727 28.11c0-.028 0-.055-.008-.083v.164c.004-.027.008-.054.008-.082"/><path fill="#f9beaa" d="M18.656 22.957a1.384 1.384 0 00-.906.379.09.09 0 000 .133c.035.035.09.035.121 0 .129-.117.402-.324.79-.328.456-.008.769.273.894.406.03.035.082.039.12.008a.092.092 0 00.009-.137c-.145-.16-.5-.473-1.028-.461"/><path fill="#542020" d="M9.953 7.625c-.433.59-3.363 7.313-3.41 10.152-.008.473-1.047.137.812 5.153.957 2.586 1.825 4.03 2.598 5.261 2.074 3.301 12.695 8.137 18.406-3.285 1.508-3.02 2.465-8.34.762-13.285-1.191-3.465-2.64-4.508-5.308-6.16-4.856-3.004-10.16-2.863-13.86 2.164"/><path fill="#f9beaa" d="M19.316 22.855c-.03.028-.082.024-.113-.007-.117-.125-.418-.387-.848-.375a1.134 1.134 0 00-.738.32.09.09 0 01-.117.004c-.035-.035-.04-.094-.004-.129.14-.133.434-.355.856-.367.496-.016.835.273.976.426a.084.084 0 01-.008.125l-.004.003"/><g clip-path="url(#c)"><path fill="#365ace" d="M10.77 30.496a13.977 13.977 0 007.28 2.14 13.952 13.952 0 007.575-2.116 31.573 31.573 0 00-7.645-.903 31.598 31.598 0 00-7.21.88"/></g><path fill="#13131c" d="M21.352 26.957a.252.252 0 00-.012-.078v.156a.27.27 0 00.012-.078"/><path fill="#f49b6e" d="M15.063 29.445v.723c.378.539 1.585.934 3.011.937 1.656 0 3.012-.527 3.133-1.195v-.191l.004-4.262-6.145-.004-.004 3.992"/><path fill="#f9beaa" d="M18.367 22.066a1.32 1.32 0 00-.863.375.089.089 0 00.004.13c.031.03.082.027.117-.005a1.13 1.13 0 01.746-.32c.434-.012.738.25.856.375.03.035.082.035.117.008a.089.089 0 00.008-.129c-.141-.152-.48-.445-.985-.434"/><path fill="#ffb288" d="M9.188 15.867c-.47.13-.7.645-.876 1.035-.113.262-.445 1.043-.144 1.965.078.246.305.809.871 1.223.207.152.664.488 1.309.445.058-.004.859-.07 1.273-.664.656-.95-.152-2.539-.98-3.336-.27-.262-.86-.828-1.454-.668"/><path fill="#f58c6c" d="M9.406 16.535c-.426.125-.437 1.219-.437 1.332-.004.254 0 .703.289 1.149.117.187.367.57.836.668.383.082.902-.028 1.09-.368.207-.378-.094-.867-.47-1.484-.28-.457-.874-1.426-1.308-1.297"/><path fill="#ffb288" d="M26.594 15.867c.472.13.699.645.875 1.035.113.262.449 1.043.148 1.965a2.494 2.494 0 01-.875 1.223c-.207.152-.664.488-1.308.445-.055-.004-.86-.07-1.274-.664-.656-.95.152-2.539.98-3.336.27-.262.86-.828 1.454-.668"/><path fill="#f58c6c" d="M26.375 16.535c.426.125.438 1.219.438 1.332.003.254 0 .703-.29 1.149-.117.187-.367.57-.835.668-.38.082-.903-.028-1.09-.368-.207-.378.093-.867.468-1.484.286-.457.875-1.426 1.309-1.297"/><path fill="#f49b6e" d="M24.32 5.887c-1.27-1.242-2.883-1.371-4.629-1.516-1.027-.086-2.37-.195-4.015.352-.676.222-2.426.828-3.848 2.574a8.052 8.052 0 00-1.574 3.203c-.125.531-.145 1.371-.18 3.023-.035 1.875-.054 2.813-.004 3.735.11 1.89.164 2.836.52 3.914.254.758.992 2.879 3.055 4.273a7.448 7.448 0 002.53 1.07c.571.133 1.962.442 3.669.005 2-.516 3.207-1.739 3.672-2.22 1.41-1.472 1.894-3.05 2.011-3.468.243-.852.25-1.781.266-3.645.02-2.011.512-2.148.531-3.734.035-2.98-.148-3.207-.523-4.719-.149-.609-.457-1.843-1.48-2.847"/><path fill="#ffb288" d="M24.32 5.828c-1.27-1.195-2.883-1.32-4.629-1.46-1.027-.079-2.37-.188-4.015.339-.676.215-2.426.797-3.848 2.477a7.647 7.647 0 00-1.574 3.082c-.125.511-.145 1.32-.18 2.91-.035 1.804-.054 2.703-.004 3.594.11 1.82.164 2.73.524 3.765.25.73.988 2.774 3.05 4.113 1.063.688 2.055.922 2.532 1.032.57.125 1.965.422 3.672 0 2-.492 3.203-1.668 3.668-2.133 1.414-1.414 1.894-2.934 2.011-3.336.243-.82.25-1.719.266-3.512.02-1.93.516-2.062.531-3.594.04-2.863-.148-3.085-.523-4.535-.149-.59-.457-1.777-1.48-2.742"/><path fill="#f58c6c" d="M19.414 18.324c0 .434-.57.781-1.277.781s-1.278-.347-1.278-.78c0-.434.57-.786 1.278-.786.707 0 1.277.352 1.277.785"/><path fill="#ff9292" d="M13.629 18.324c0 .254-.535.461-1.2.461-.663 0-1.199-.207-1.199-.46 0-.259.536-.466 1.2-.466.664 0 1.199.207 1.199.465m9.016 0c0 .254.539.461 1.199.461.664 0 1.203-.207 1.203-.46 0-.259-.54-.466-1.203-.466-.66 0-1.2.207-1.2.465"/><path fill="#541713" d="M14.445 15.383c-.418.094-.617.68-.437 1.308.18.63.664 1.063 1.086.973.418-.094.613-.68.437-1.309-.18-.628-.664-1.062-1.086-.972m7.383 0c.418.094.617.68.438 1.308-.18.63-.664 1.063-1.082.973-.422-.094-.618-.68-.442-1.309.18-.628.664-1.062 1.086-.972"/><path fill="#8e3d34" d="M15.668 13.05a2.397 2.397 0 00-.332.009l-.168.015-.148.024-.141.027-.055.008-.039.012-.078.02c-.105.023-.207.058-.309.093-.101.035-.195.078-.293.12-.093.044-.183.095-.273.142a3.3 3.3 0 00-.473.335 3.065 3.065 0 00-.789 1 1.274 1.274 0 00-.082.2l-.023.07s.023-.012.066-.031c.043-.024.11-.055.184-.098.156-.078.375-.187.633-.3.125-.06.261-.118.406-.173.144-.058.297-.113.45-.164.16-.046.32-.097.483-.136.083-.024.165-.036.247-.055l.062-.016.027-.004h-.007c.007 0-.016.004.015-.003l-.004.003h-.004.004l.02-.003.144-.024c.043-.008.098-.02.137-.023l.117-.012c.078-.012.16-.02.246-.027.168-.012.082-1.012-.023-1.008m4.942-.001c.1-.003.21-.003.328.009l.167.015.149.024.14.027.055.008.04.012.077.02c.106.023.207.058.309.093.102.035.2.078.293.12.094.044.184.095.273.142a3.3 3.3 0 01.473.335c.14.118.266.239.367.36.211.242.344.473.422.64.043.082.067.153.082.2.016.047.027.07.027.07s-.023-.012-.07-.031c-.043-.024-.105-.055-.183-.098-.157-.078-.375-.187-.63-.3a6.836 6.836 0 00-.41-.173 7.61 7.61 0 00-.449-.164c-.16-.046-.316-.097-.484-.136-.078-.024-.164-.036-.246-.055l-.063-.016-.027-.004h.008c-.008 0 .02.004-.016-.003l.004.003h.004-.004l-.02-.003-.14-.024c-.047-.008-.102-.02-.14-.023l-.118-.012a4.305 4.305 0 00-.246-.027c-.168-.012-.082-1.012.027-1.008"/><path fill="#5b0707" d="M18.348 23.93c2.304-.075 3.191-3.727 3.191-3.727l-6.668-.098s1.016 3.903 3.477 3.825"/><path fill="#fff" d="M18.203 21.242c2.09 0 3.336-1.039 3.336-1.039l-6.668-.098s1.129 1.137 3.332 1.137"/><path fill="#a02320" d="M16.418 23.043c.504.531 1.145.914 1.93.887.715-.024 1.293-.39 1.75-.887a3.125 3.125 0 00-1.75-.605c-.844-.02-1.5.3-1.93.605"/><path fill="#13131c" d="M21.719 28.191c.004-.027.008-.054.008-.082 0-.027 0-.054-.008-.082v.164"/><g clip-path="url(#d)"><path fill="#8e3d34" d="M29.582 24.855c1.254-2.23 1.691-4.847 1.297-7.386-.047-.309-.094-.625-.145-.946C28.56 2.051 19.297 2.414 17.254 3.391c-.258.12-1.512 4.636.379 4.652 7.918.062 8.703 9.523 7.414 17.488a30.89 30.89 0 01-1.55 5.785c2.53-1.593 4.608-3.832 6.085-6.46"/></g><path fill="#a0493d" d="M29.816 21.238a23.276 23.276 0 00-1.64-7.136c-.922-2.282-1.746-4.336-3.727-5.844-2.539-1.934-5.586-1.918-5.59-1.899-.004.016 1.77.098 3.578 1.215.426.266 2.231 1.438 3.727 4.63 1.555 3.32 1.617 6.343 1.64 8.577.024 2.696-.308 5.313-.757 7.574a18.6 18.6 0 002.75-3.894c.098-1.36.066-2.477.02-3.223"/><g clip-path="url(#e)"><path fill="#8e3d34" d="M7.215 25.523c-1.524-2.468-2.094-5.421-1.652-8.3l.105-.7C7.844 2.051 17.109 2.414 19.148 3.391c.258.12 1.512 4.636-.378 4.652-7.918.062-8.704 9.523-7.41 17.488a30.294 30.294 0 001.55 5.785c-2.316-1.457-4.254-3.453-5.695-5.793"/></g><path fill="#a0493d" d="M6.59 21.238c.062-1.031.312-3.843 1.637-7.136.921-2.282 1.75-4.336 3.73-5.844 2.535-1.934 5.586-1.918 5.59-1.899.004.016-1.774.098-3.578 1.215-.426.266-2.23 1.438-3.727 4.63-1.558 3.32-1.617 6.343-1.64 8.577-.028 2.696.304 5.313.757 7.574a18.616 18.616 0 01-2.754-3.894 23.984 23.984 0 01-.015-3.223"/></svg>