<svg xmlns="http://www.w3.org/2000/svg" width="48" viewBox="0 0 36 36" height="48" version="1.0"><defs><clipPath id="a"><path d="M.488 0h35.024v35.027H.488zm0 0"/></clipPath><clipPath id="b"><path d="M3.996 5.41h27.715v28.336H3.996zm0 0"/></clipPath><clipPath id="c"><path d="M14.793 27.672h6.39v6.074h-6.39zm0 0"/></clipPath><clipPath id="d"><path d="M6 1.637h23V22H6zm0 0"/></clipPath><clipPath id="e"><path d="M21 1.637h3V7h-3zm0 0"/></clipPath><clipPath id="f"><path d="M6 1.637h23V22H6zm0 0"/></clipPath></defs><g clip-path="url(#a)"><path fill="#99c9ff" d="M18 0C8.328 0 .488 7.84.488 17.512c0 9.675 7.84 17.515 17.512 17.515s17.512-7.84 17.512-17.515C35.512 7.84 27.672 0 18 0"/></g><g clip-path="url(#b)"><path fill="#a5dce1" d="M18.016 5.43c-7.653-.09-13.93 6.172-14.02 13.992-.09 7.82 6.043 14.234 13.695 14.324 7.653.094 13.926-6.172 14.016-13.992.09-7.82-6.039-14.23-13.691-14.324"/></g><g clip-path="url(#c)"><path fill="#f58c6c" d="M14.816 32.883l-.004.523a13.71 13.71 0 002.88.34 13.679 13.679 0 003.39-.383v-.058l.063-5.516-6.266-.074-.063 5.168"/></g><path fill="#13131c" d="M21.27 29.324a.583.583 0 00-.008-.082v.16a.48.48 0 00.008-.078"/><path fill="#f9beaa" d="M18.277 24.29c-.43.003-.738.233-.882.366a.093.093 0 00.003.133c.032.031.082.031.118 0a1.15 1.15 0 01.765-.32c.446-.008.754.265.871.394.032.035.082.04.118.008a.09.09 0 00.011-.133c-.144-.156-.488-.46-1.004-.449"/><path fill="#ffb288" d="M8.77 18.07c-.579.149-.864.782-1.082 1.262-.145.316-.563 1.273-.208 2.41.098.305.364.996 1.051 1.516.254.187.809.61 1.598.562.07-.004 1.055-.074 1.57-.8.817-1.153-.156-3.122-1.156-4.11-.332-.324-1.043-1.031-1.773-.84"/><g clip-path="url(#d)"><path fill="#8e3d34" d="M27.855 9.602c-.234-.5-1.421-2.094-1.32-2.196.082-.082.336.059.488.14.579.317.793.724.84.696.106-.066-.68-2.246-1.668-2.254-.254 0-.523.145-.668-.008-.136-.14 0-.41.008-.68.07-3.448-3.875-3.523-4.066-3.413a.094.094 0 00-.04.039c-.066.18.891.453 1.055 1.242.075.348-.011.766-.187.816-.031.012-.063.008-.098-.007-.187-.079-.406-.47-.648-.774-.914-1.129-2.485-1.305-3.418-1.406-1.403-.156-2.48.168-2.988.328-.52.164-2.493.805-4.04 2.59-.539.625-1.058 1.426-2.027 1.98-.402.23-.855.492-1.43.438-.324-.028-.636-.153-.777-.137-.035.004-.055.016-.066.035-.035.059.027.157.172.332.41.512.66.82 1.101 1.004.582.246.836 0 .98.195.337.461-1.261 1.63-1.015 2.946.105.566.43.5.7 1.332.237.738.023.918.152 2.047.132 1.152.69 5.625.93 5.48.253-.152.46-.762.37-2.23-.039-.59-.03-1.012-.027-1.547a17.28 17.28 0 01.352-3.41c.25-1.196.375-1.79.785-2.496.215-.371.804-1.36 2.027-2.024.309-.168 1.574-.86 3.04-.558.882.183.901.535 1.66.609a.05.05 0 00.023.004c1.168.11 1.496-.535 2.547-.7 5.03-.765 5.46 5.387 5.511 7.063.02.645-.054 1.809-.199 3.246-.125 1.242-.484 2.965-.05 2.79.37-.153.296-.067.37-.153.426-.508 1-6.387 1.286-7.121 1.105-2.852.453-3.988.335-4.238"/></g><path fill="#f58c6c" d="M9.027 18.89c-.52.15-.55 1.493-.554 1.633-.004.313-.004.868.343 1.415.145.23.442.703 1.012.832.469.105 1.11-.02 1.344-.438.258-.46-.106-1.066-.559-1.828-.34-.567-1.05-1.762-1.586-1.613"/><path fill="#ffb288" d="M25.348 19.086c-1.02.965-2.04 2.91-1.25 4.082.5.738 1.48.832 1.55.84.79.062 1.356-.344 1.61-.528a3.052 3.052 0 001.086-1.488c.383-1.129-.012-2.094-.149-2.414-.207-.484-.48-1.125-1.054-1.289-.727-.207-1.453.48-1.793.797"/><path fill="#f58c6c" d="M25.242 20.68c-.472.75-.847 1.343-.601 1.812.226.426.863.567 1.332.473.578-.117.886-.582 1.035-.809.355-.539.37-1.093.37-1.406.005-.14.005-1.484-.515-1.645-.527-.164-1.27 1.016-1.62 1.575"/><path fill="#f58c6c" d="M19.82 6.188c-1.047-.098-2.414-.227-4.101.316-.692.219-2.48.82-3.95 2.59a8.28 8.28 0 00-1.64 3.261c-.133.543-.164 1.399-.215 3.09-.059 1.922-.086 2.88-.043 3.825.09 1.937.133 2.906.488 4.015.25.777.98 2.957 3.067 4.406A7.4 7.4 0 0016 28.813c.578.144 1.996.476 3.738.046 2.047-.504 3.293-1.742 3.77-2.23a8.617 8.617 0 002.09-3.527c.254-.868.273-1.82.308-3.73.043-2.056.547-2.192.586-3.817.067-3.047-.12-3.285-.484-4.832-.149-.63-.45-1.895-1.48-2.93-1.286-1.285-2.926-1.441-4.708-1.606"/><path fill="#ffb288" d="M19.82 6.184c-1.047-.094-2.414-.22-4.101.3-.688.215-2.48.79-3.95 2.496a7.828 7.828 0 00-1.64 3.133c-.133.528-.16 1.352-.211 2.977-.059 1.848-.086 2.77-.043 3.68.09 1.867.137 2.796.492 3.863.25.75.98 2.847 3.07 4.242a7.597 7.597 0 002.57 1.082c.579.137 1.997.457 3.743.047 2.047-.484 3.29-1.676 3.766-2.149a8.208 8.208 0 002.09-3.39c.253-.836.269-1.754.308-3.59.04-1.977.543-2.11.582-3.672.067-2.933-.121-3.16-.488-4.652-.149-.602-.445-1.824-1.48-2.82-1.286-1.239-2.926-1.387-4.708-1.547"/><path fill="#f48f6d" d="M16.957 18.871c-.168.098-.516.305-.539.629-.023.285.652 1.426 1.492 1.438.63.007 1.297-.434 1.488-1.036.141-.457-.199-.894-.214-.914-.5-.629-1.598-.484-2.227-.117"/><path fill="#591611" d="M15.8 12.445c-1.175-.215-1.968-.36-2.753.13-.477.292-.73.687-.942 1.015-.421.656-.628 1.398-.52 1.457.114.066.4-.707 1.216-1.133.636-.328 1.273-.281 1.511-.258 1.286.117 1.778.996 2.2.739.383-.23.422-1.215-.02-1.665-.152-.156-.34-.218-.691-.285"/><g clip-path="url(#e)"><path fill="#6d3131" d="M21.469 1.887a.094.094 0 00-.04.039c-.066.18.891.453 1.055 1.242.075.348-.011.766-.187.816-.031.012-.063.008-.098-.007.028.097.043.191.051.28.063.825-.625 1.665-.465 1.77.133.09.668-.504.988-.941.438-.598.774-1.059.688-1.633-.078-.512-.453-.836-.656-1.008a2.44 2.44 0 00-1.336-.558"/></g><path fill="#6d3131" d="M14.727 6.055c-1.536-.059-2.985.832-3.38 1.03-1.171.59-1.273 1.099-1.976 1.208-.574.09-1.39-.117-2.5-1.297-.035.004-.055.016-.066.035-.035.059.027.157.172.332.41.512.66.82 1.101 1.004.582.246.836 0 .98.195.337.461-1.261 1.63-1.015 2.946.105.566.43.5.7 1.332.237.738.023.918.152 2.047.132 1.152.69 5.625.93 5.48.253-.152.46-.762.37-2.23-.039-.59-.03-1.012-.027-1.547a17.28 17.28 0 01.352-3.41c.25-1.196.375-1.79.785-2.496.215-.371.804-1.36 2.027-2.024.309-.168 1.574-.86 3.04-.558.882.183.901.535 1.66.609-.04-.324-.141-.7-.364-1.047-.754-1.176-2.086-1.574-2.941-1.61"/><g clip-path="url(#f)"><path fill="#8e3d34" d="M25.535 5.3c.07-3.448-3.875-3.523-4.066-3.413a2.44 2.44 0 011.336.558c.203.172.578.496.656 1.008.086.574-.25 1.035-.688 1.633-.32.437-.855 1.031-.988.941-.16-.105.527-.945.465-1.77a1.529 1.529 0 00-.05-.28c-.188-.079-.407-.47-.65-.774-.913-1.129-2.484-1.305-3.417-1.406-1.403-.156-2.48.168-2.988.328-.52.164-2.493.805-4.04 2.59-.539.625-1.058 1.426-2.027 1.98-.402.23-.855.492-1.43.438-.324-.028-.636-.153-.777-.137 1.11 1.18 1.926 1.387 2.5 1.297.703-.11.805-.617 1.977-1.207.394-.2 1.59-.75 3.125-.691.851.035 2.441.093 3.195 1.27.223.347.324.722.363 1.046a.05.05 0 00.024.004c1.168.11 1.496-.535 2.547-.7 5.03-.765 5.46 5.387 5.511 7.063.02.645-.054 1.809-.199 3.246-.125 1.242-.484 2.965-.05 2.79.37-.153.296-.067.37-.153.426-.508 1-6.387 1.286-7.121 1.105-2.852.453-3.988.335-4.238-.234-.5-1.421-2.094-1.32-2.196.082-.082.336.059.488.14.579.317.793.724.84.696.106-.066-.68-2.246-1.668-2.254-.254 0-.523.145-.668-.008-.136-.14 0-.41.008-.68"/></g><path fill="#8e3d34" d="M15.805 12.129c-1.176-.215-1.97-.36-2.754.129-.477.293-.73.687-.942 1.015-.421.657-.629 1.399-.52 1.457.114.067.4-.707 1.216-1.132.636-.328 1.273-.282 1.511-.258 1.286.117 1.778.992 2.2.738.382-.23.422-1.215-.02-1.664-.152-.156-.34-.219-.691-.285"/><path fill="#591611" d="M20.563 12.504c-.356.059-.543.113-.7.27-.449.437-.433 1.421-.058 1.66.418.265.93-.602 2.215-.684.242-.016.878-.05 1.507.293.809.445 1.075 1.223 1.188 1.164.11-.059-.078-.805-.488-1.473-.204-.332-.446-.73-.915-1.039-.773-.508-1.57-.379-2.75-.191"/><path fill="#8e3d34" d="M20.566 12.188c-.355.054-.543.113-.699.269-.453.438-.433 1.422-.058 1.66.418.266.93-.601 2.214-.683.243-.016.88-.051 1.508.293.805.445 1.074 1.222 1.188 1.164.11-.059-.078-.805-.489-1.473-.203-.332-.445-.73-.918-1.04-.769-.507-1.566-.378-2.746-.19"/><path fill="#a05342" d="M18.414 4.246v-.004c-.004.008-.004.004 0 .004m-.777.988l.004-.004-.004.004m.043-.05c-.032-.008-.063-.02-.098-.032l-.164-.058c.055.054.11.11.152.164a.72.72 0 01.04.062c.003.004.003.012 0-.008 0-.003 0-.019.003-.023 0-.004 0-.012.004-.02.008-.015-.008.008.024-.039l-.004.004.004-.004v-.003.003c.007-.011.02-.02.03-.027.013-.004.017-.008.02-.008.016-.004.02-.004.024-.004l-.004-.003c-.004 0-.02 0-.031-.004m.734-.942c.004-.008.004-.008 0 0"/><path fill="#a05342" d="M18.469 4.184a4.655 4.655 0 01-.2-.075 5.143 5.143 0 00-.261-.09c.031.02.058.04.09.063a1.608 1.608 0 01.28.262c.005.008.013.02.009.02v-.009c0-.003-.004-.003-.004-.02v-.019c0-.011.004-.023.008-.035a.513.513 0 01.023-.039v.004c-.004 0-.004.004 0-.004s.004-.008 0 0c.004-.004.004-.008.012-.012.012-.015.035-.027.047-.027.004-.004.011-.004.015-.008h.016a.182.182 0 00-.035-.011"/><path fill="#a05342" d="M18.254 3.086a3.339 3.339 0 00-1.59-.117 3.262 3.262 0 00-.664.187 1.042 1.042 0 00-.223.125c-.011.012-.02.02-.03.04-.005.003-.013.023-.02.038 0 .004-.004.02-.004.032.004.023-.008.007.011.058v.004c.004.004.016.027.028.035.031.028.039.024.05.032.012.003.016.003.024.007.008 0 .016.004.023.004h.059c.133 0 .246-.011.371-.015a3.22 3.22 0 01.742.066c.246.055.492.148.727.277.086.047.168.102.25.16.09.028.176.06.262.09a4.655 4.655 0 00.234.086h.004-.02c-.004.004-.011.004-.015.008-.012 0-.035.012-.047.027-.008.004-.008.008-.012.012a.513.513 0 00-.023.04.105.105 0 00-.008.034v.02c0 .016.004.016.004.02v.007c.004 0-.004-.011-.008-.02a1.608 1.608 0 00-.371-.324l-.172-.058a5.572 5.572 0 00-.457-.11c-.04-.003-.078-.011-.121-.015l-.113-.016c-.079-.011-.16-.015-.239-.023-.316-.016-.636 0-.957.05a4.127 4.127 0 00-.472.11 1.686 1.686 0 00-.363.14c-.012.008-.028.016-.04.028-.004.004-.02.012-.027.02l-.016.015c-.008.008-.015.02-.023.031a.168.168 0 00-.031.079c-.012.039.043.19.023.128 0-.003-.004-.003 0 0-.004-.003 0-.003 0 0a.183.183 0 00.063.063c.046.027.066.027.066.027.02.004.035.008.043.008h.027c.055-.004.09-.008.13-.012l.112-.011c.075-.004.149-.012.223-.012.145-.004.293 0 .438.02.285.035.562.12.812.257a2.773 2.773 0 01.504.355l.164.06c.035.011.066.023.098.03.011.005.027.005.03.005l.005.003c-.004 0-.008 0-.024.004-.003 0-.007.004-.02.008-.01.008-.023.016-.03.027-.032.047-.016.024-.024.04-.004.007-.004.015-.004.02-.004.003-.004.019-.004.022.004.02.004.012 0 .008a.72.72 0 00-.039-.062 1.759 1.759 0 00-.152-.164c-.086-.028-.168-.059-.254-.086a4.723 4.723 0 00-.86-.2 4.725 4.725 0 00-.843-.027 4.266 4.266 0 00-1.156.239c-.059.023-.117.05-.176.082-.016.007-.031.02-.047.03l-.016.013-.007.003c-.008.004-.012.012-.016.016l-.012.016a.131.131 0 00-.02.062c-.003.024.036.102.02.067-.004-.004.016.02.031.027.016.012.036.02.051.023h.059l.05-.007c.231-.036.446-.063.653-.07.21-.009.406 0 .59.019a3.407 3.407 0 011.672.664s-.059-.055-.172-.145a3.319 3.319 0 00-1.48-.656 3.665 3.665 0 00-.567-.055c-.066.008-.129.02-.191.036a3.012 3.012 0 00-.348.09 2.127 2.127 0 00-.152.058.224.224 0 01-.028.016l-.004.003c0-.003.004-.003.004-.007.004 0 .004-.004.008-.008a.13.13 0 00.016-.05c0-.013-.016-.048-.02-.06-.004-.007-.012-.015-.02-.023a.082.082 0 00-.038-.016h.015l.04-.003a5.74 5.74 0 01.675-.04c.012 0 .027 0 .043.004.18-.03.363-.05.555-.054a4.34 4.34 0 011.593.258c.137.046.27.101.414.152a.823.823 0 00.118.039c.02.004.043.012.074.016.027.003.058.011.129-.012.008 0 .02-.004.035-.016.016-.008.027-.02.039-.031.016-.016.012-.012.016-.012l.004-.008c.035-.054.02-.03.03-.054a.092.092 0 00.009-.032c.003-.015.003-.039.003-.05 0-.063-.015-.09-.027-.121-.023-.055-.05-.094-.074-.13a2.022 2.022 0 00-.352-.355 3.08 3.08 0 00-.406-.273 2.537 2.537 0 00-.726-.266 3.304 3.304 0 00-.774.14c-.07.024-.14.048-.203.075a.7.7 0 00-.086.04c-.004.003-.008.003-.008.007-.004 0 0-.004 0-.004.004-.004 0 0 .008-.004a.087.087 0 01.016-.02c-.004 0 .015-.023.023-.066a.365.365 0 00-.023-.117.27.27 0 00-.047-.055c-.047-.023-.063-.023-.055-.023h-.012s-.004 0 0 0a.717.717 0 01.102-.008l.117-.012c.082-.008.164-.011.242-.015a2.972 2.972 0 01.7.062c.18-.015.359-.02.535-.012.074.004.148.012.218.02l.11.012.105.015c.145.024.285.055.426.094.14.035.277.082.414.133l.219.074c.02.004.039.012.07.016a.19.19 0 00.051.004c.016 0 .023.004.047 0a.072.072 0 01.027-.008c.016-.008.043-.02.063-.04l.02-.019c-.016.024.023-.035.027-.05a.104.104 0 00.011-.047c.004-.012 0-.024 0-.036a.118.118 0 00-.008-.046.39.39 0 00-.055-.113 1.415 1.415 0 00-.175-.184 2.912 2.912 0 00-.18-.145 3.032 3.032 0 00-2-.555c-.007 0-.02.004-.03.004a1.48 1.48 0 00-.165.07c-.047.024-.098.048-.137.079-.008.004-.015.011-.02.015v-.003s.009-.008.009-.016c0-.004.004-.012.004-.024 0-.015.007.004-.008-.046v.007s-.008-.02-.016-.027c-.027-.023-.027-.02-.031-.023h-.004.035c.098-.008.215-.024.332-.032a3.186 3.186 0 011.031-.215c.371-.015.7.032.957.094a4.046 4.046 0 01.805.282s-.066-.04-.2-.106a3.56 3.56 0 00-.585-.246"/><path fill="#a05342" d="M15.652 4.098c-.078.004-.16.007-.242.015l-.117.012a.717.717 0 00-.102.008c-.004 0 0 0 0 0h.012c-.008 0 .008 0 .055.023a.27.27 0 01.047.055c-.004-.02-.008-.024.004.004 0 .004.004.004 0 0 .004.004 0 .004 0 0s-.004-.004-.004-.004a.365.365 0 01.023.117c-.008.043-.027.067-.023.067a.058.058 0 00-.016.02c-.008.003-.004 0-.008.003 0 0-.004.004 0 .004 0-.004.004-.004.008-.008.024-.012.055-.027.086-.039.063-.027.133-.05.203-.074a3.304 3.304 0 01.773-.14 2.972 2.972 0 00-.7-.063m.232-.789h-.004.004c.004.003.004 0 .031.023a.107.107 0 01.016.027v-.007c.015.05.008.03.008.046 0 .012-.004.02-.004.024 0 .008-.008.015-.008.015v.004c.004-.003.011-.011.02-.015.038-.031.09-.055.136-.078.055-.028.11-.051.164-.07-.117.007-.234.023-.332.03h-.031m-1.68 1.88c.004.003.004.003 0 0m0 0c-.004-.012-.004-.012 0 0"/><path fill="#a05342" d="M15.309 4.215c-.012-.027-.008-.024-.004-.004 0 0 .004 0 .004.004m-1.109.93l-.04.003h-.015c.011 0 .027.008.039.016.007.008.015.016.02.024-.005-.012-.005-.012 0 0 .003.003.003.003 0 0 .003.003.003.003 0 0 .003.011.019.046.019.058a.13.13 0 01-.016.05c-.004.005-.004.009-.008.009 0 .004-.004.004-.004.008l.004-.004a.224.224 0 00.028-.016 2.113 2.113 0 01.5-.149c.062-.015.125-.027.191-.035-.016-.004-.031-.004-.043-.004a5.74 5.74 0 00-.676.04"/><path fill="#541713" d="M14.39 15.2c-.406.085-.636.765-.519 1.515.121.75.543 1.285.95 1.2.406-.087.64-.767.519-1.517-.117-.75-.543-1.285-.95-1.199m6.25 1.261c-.132.747.083 1.43.489 1.528.402.098.84-.43.976-1.175.133-.747-.082-1.43-.488-1.528-.402-.098-.84.43-.976 1.176"/><path fill="#fff" d="M24.21 16.672c-.01 1.308-1.065 2.363-2.347 2.348-1.281-.016-2.312-1.094-2.297-2.403.012-1.308 1.067-2.363 2.352-2.347 1.281.015 2.309 1.093 2.293 2.402zm-7.472-.09c-.015 1.309-1.07 2.363-2.351 2.348-1.282-.016-2.313-1.094-2.297-2.403.015-1.308 1.07-2.363 2.351-2.347 1.282.015 2.313 1.093 2.297 2.402zm5.188-3c-1.598-.02-2.922 1.246-3.028 2.855l-1.488-.011c-.066-1.613-1.363-2.914-2.96-2.934-1.653-.02-3.016 1.336-3.036 3.028-.016 1.687 1.313 3.078 2.965 3.097 1.48.02 2.723-1.066 2.984-2.504l1.567.012c.222 1.445 1.441 2.566 2.925 2.582 1.653.02 3.012-1.336 3.032-3.027.02-1.688-1.309-3.078-2.961-3.098m-4.051 10.332c1.7.023 3.086-.871 3.098-1.996l-6.149-.074c-.011 1.125 1.352 2.05 3.051 2.07"/></svg>