<svg xmlns="http://www.w3.org/2000/svg" width="48" viewBox="0 0 36 36" height="48" version="1.0"><defs><clipPath id="a"><path d="M.488 0h35.024v35.027H.488zm0 0"/></clipPath></defs><g clip-path="url(#a)"><path fill="#fff" d="M.488 0h35.024v42.324H.488zm0 0"/><path fill="#fff" d="M.488 0h35.024v35.027H.488zm0 0"/><path fill="#fff" d="M.488 0h35.024v35.027H.488zm0 0"/><path fill="#1b1b32" d="M30.383 5.129A17.398 17.398 0 0018 0C13.32 0 8.922 1.82 5.617 5.129A17.398 17.398 0 00.488 17.512a17.4 17.4 0 005.13 12.386A17.4 17.4 0 0018 35.028c4.676 0 9.074-1.825 12.383-5.13a17.4 17.4 0 005.129-12.386c0-4.676-1.82-9.075-5.13-12.383zM6.41 5.926A16.277 16.277 0 0118 1.125a16.28 16.28 0 0111.59 4.8 16.284 16.284 0 014.8 11.587c0 3.64-1.18 7.097-3.355 9.941a9.178 9.178 0 00-7.5-3.851h-11.07a9.173 9.173 0 00-7.5 3.851 16.277 16.277 0 01-3.356-9.941c0-4.375 1.707-8.492 4.801-11.586zM18 22.676c4.5 0 8.16-3.66 8.16-8.16S22.5 6.356 18 6.356s-8.16 3.66-8.16 8.16 3.66 8.16 8.16 8.16zm0 0"/></g></svg>