<svg xmlns="http://www.w3.org/2000/svg" width="48" viewBox="0 0 36 36" height="48" version="1.0"><defs><clipPath id="a"><path d="M.488 0h35.024v35.027H.488zm0 0"/></clipPath><clipPath id="b"><path d="M7 4.816h23.918v30.211H7zm0 0"/></clipPath><clipPath id="c"><path d="M5.379 28h25.539v7.027H5.378zm0 0"/></clipPath><clipPath id="d"><path d="M5.379 29h25.539v6.027H5.378zm0 0"/></clipPath><clipPath id="e"><path d="M5.379 29H15v6.027H5.379zm0 0"/></clipPath></defs><g clip-path="url(#a)"><path fill="#99c9ff" d="M18 0C8.328 0 .488 7.84.488 17.512c0 9.675 7.84 17.515 17.512 17.515s17.512-7.84 17.512-17.515C35.512 7.84 27.672 0 18 0"/></g><g clip-path="url(#b)"><path fill="#291312" d="M29.043 26.723c-.535-.836-1.023-1.746-1.078-2.891-.07-1.445.312-2.648.62-3.98.376-1.633-.753-2.817-.98-5.047.141-7.602-3.703-9.961-8.785-9.961-4.508 0-8.093 1.953-8.945 7.265-.023.09-.04.176-.043.274 0 .027-.004.047-.008.074-.058.48-.097.992-.117 1.523-.387 3.06-1.402 4.137-1 5.872.309 1.332.688 2.535.617 3.98-.054 1.145-.539 2.055-1.074 2.89-.91 1.426-1.54 3.012-.46 4.532.687.965 1.605 1.621 1.534 3.191-.035.77-.336.414-.61.055-.273-.355-.527-.71-.468.055.125 1.64 1.305 2.488 2.367 2.554.418.028.946-.27 1.469-.566.504-.285 1.008-.57 1.41-.57.903 0 1.598 1.609 2.461 1.215 1.106-.508 1.621-.762 2.692-1.06 1.07.298 1.585.552 2.69 1.06.864.394 1.56-1.215 2.462-1.215.402 0 .906.285 1.41.57.523.297 1.05.594 1.469.566 1.062-.066 2.242-.914 2.367-2.554.059-.766-.191-.41-.469-.055-.273.36-.574.715-.61-.055-.07-1.57.849-2.226 1.536-3.191 1.082-1.52.45-3.106-.457-4.531"/></g><path fill="#f89a6a" d="M18.582 5.855h-.02c-5.468.067-7.894 3.11-7.859 11.41.008 1.817.125 3.227.973 4.462 1.914 2.785 2.855 3.78 5.719 5.418.324.187.992.28 1.27.28.3 0 .991-.109 1.269-.292 2.773-1.813 3.656-2.606 5.668-5.465.863-1.227.945-2.656.937-4.469-.035-8.3-2.488-11.324-7.957-11.344"/><path fill="#f89a6a" d="M11.242 15.36c.235-.516-.633-1.352-1.094-.622-.636 1.024-.316 3.336 1.106 3.676l-.012-3.055m14.742-.069c-.242-.509.621-1.356 1.086-.63.649 1.02.348 3.332-1.07 3.688l-.016-3.059M21.14 25.316a13.793 13.793 0 00-4.968.024c.453 1.11.457 2.226.015 3.344a13.79 13.79 0 004.97-.024c-.454-1.113-.458-2.226-.016-3.344"/><g clip-path="url(#c)"><path fill="#f89a6a" d="M8.613 46.395c.086-.567.157-1.13.203-1.676.243-2.696.95-8.2.95-8.2 0 .063 0 .13-.004.192v.016c-.028.53-.133 3.07-.13 3.976.009 1.774.72 3.36 1.833 4.438.11.41.207.828.293 1.254h14.031c.086-.446.188-.887.293-1.32 1.105-1.087 1.805-2.677 1.797-4.45-.004-.91-.133-3.445-.164-3.977v-.015c-.004-.063-.004-.13-.004-.192 0 0 .75 5.496 1.016 8.192.058.578.14 1.168.234 1.762h4.543c-.2-1.758-.387-3.43-.625-4.977-.785-5-1.824-8.66-2.762-9.586-1.601-1.59-3.816-.941-9.523-3.55l-1.828.007h-.125l-1.828.008c-5.688 2.66-7.903 2.031-9.497 3.633-.925.937-1.933 4.605-2.675 9.613-.223 1.508-.395 3.14-.57 4.852h4.542"/></g><path fill="#291312" d="M18.465 10.238s7.789 2.575 8.035 6.477c.035-.43.043-.887.04-1.375-.028-7.18-2.47-9.793-7.907-9.805h-.024c-5.437.059-7.855 2.692-7.824 9.875.004.477.016.922.055 1.34.164-2.914 7.496-6.512 7.496-6.512h.129"/><path fill="#3a1d1d" d="M26.54 15.18c0 .437-.009.851-.04 1.238-.246-3.902-8.04-6.477-8.04-6.477h-.128S11 13.54 10.84 16.453c-.04-.379-.05-.785-.055-1.215v.172c.004.477.016.922.055 1.34.164-2.914 7.496-6.512 7.496-6.512h.129s7.789 2.575 8.035 6.477c.035-.43.043-.887.04-1.375v-.16"/><path fill="#3a1d1d" d="M18.2 10.012l-.145.05s-5.914 2.88-7.266 5.575c.008.39.016.761.05 1.113.165-2.914 7.497-6.512 7.497-6.512h.129s1.594.528 3.363 1.465c-1.894-1.047-3.629-1.691-3.629-1.691"/><path fill="#3a1d1d" d="M18.89 6.668h.02c3.899.008 6.254 1.355 7.29 4.758-.84-4.242-3.266-5.883-7.567-5.89h-.024c-5.437.058-7.855 2.69-7.824 9.874.004.477.016.922.055 1.34.05-.91.152-1.7.305-2.387.453-5.539 2.898-7.64 7.746-7.695"/><path fill="#3a1d1d" d="M18.902 9.637l.004.25c0-.13-.004-.25-.004-.25m-.742.508l-.02-4.403.352-.004.02 4.407h-.352"/><g clip-path="url(#d)"><path fill="#e4e5e3" d="M8.813 46.395c.425-2.68.64-5.708.746-7.73a58.91 58.91 0 00-.047 1.894c.008 1.78.738 3.375 1.879 4.457.074.277.109.77.12 1.379h14.505c.011-.61.047-1.102.117-1.38 1.14-1.081 1.87-2.675 1.879-4.456.004-.414-.02-1.157-.047-1.895.105 2.023.32 5.05.75 7.73h5.008c-.266-7.89-2.504-13.831-3.336-14.656-1.399-1.383-3.278-1.117-7.457-2.699-.942 1.242-4.063 4.898-4.063 4.898-.023 0-.05 0-.074-.003h-.059c-.027.004-.05.004-.078.004 0 0-3.117-3.657-4.058-4.899-4.184 1.582-6.059 1.316-7.457 2.7-.836.823-3.07 6.765-3.34 14.656h5.011"/></g><g clip-path="url(#e)"><path fill="#d0d1cf" d="M4.617 46.395c.293-7.813 2.508-13.68 3.336-14.5 1.336-1.325 3.113-1.145 6.918-2.504-.105-.133-.2-.25-.273-.352-4.184 1.582-6.059 1.316-7.457 2.7-.836.823-3.07 6.765-3.34 14.656h.816"/></g><path fill="#d0d1cf" d="M19.469 34.094c.027 0 .05 0 .078-.004h.058c.024.004.051.004.075.004 0 0 2.945-3.457 3.976-4.793a21.131 21.131 0 01-.726-.262c-.785 1.035-3.086 3.754-3.828 4.625l.367.43"/><path fill="#412315" d="M15.45 17.535c0-.652-.368-1.183-.817-1.183-.45 0-.813.53-.813 1.183 0 .656.364 1.188.813 1.188.449 0 .816-.532.816-1.188m8.059 0c0-.652-.367-1.183-.817-1.183-.449 0-.812.53-.812 1.183 0 .656.363 1.188.812 1.188.45 0 .817-.532.817-1.188m-9.981-2.082a.125.125 0 01-.086-.039.117.117 0 01.008-.164c.012-.008.934-.84 1.965-.246a.116.116 0 01.047.156c-.035.059-.106.078-.16.043-.89-.512-1.688.211-1.696.219a.124.124 0 01-.078.031m10.273 0a.11.11 0 01-.077-.031c-.032-.027-.813-.727-1.7-.219a.109.109 0 01-.156-.043.115.115 0 01.043-.156c1.035-.594 1.957.238 1.969.246a.125.125 0 01.008.164.125.125 0 01-.086.04"/><path fill="#f5764c" d="M18.59 23.816c-.965 0-1.836-.52-2.164-1.293a.123.123 0 01.058-.16c.016-.008.036-.008.051-.008a.12.12 0 01.11.07c.293.684 1.074 1.145 1.945 1.145.86 0 1.637-.453 1.937-1.125a.114.114 0 01.11-.07c.015 0 .031.004.047.008.062.031.09.101.062.164-.34.758-1.203 1.27-2.156 1.27"/><path fill="#412315" d="M14.023 16.813a2.245 2.245 0 01-.085-.083.514.514 0 01-.07-.093.327.327 0 01-.06-.215.29.29 0 00.102.18c.047.05.11.09.168.117l-.055.093"/><path fill="#412315" d="M13.992 16.898a.855.855 0 01-.125-.078.626.626 0 01-.105-.097.455.455 0 01-.121-.254c.027.09.086.16.156.215.035.027.074.05.113.07a1.6 1.6 0 00.121.043l-.039.101m-.023.161a.916.916 0 01-.168-.075.778.778 0 01-.153-.097.58.58 0 01-.203-.29.55.55 0 00.235.247c.047.027.097.05.152.066.055.02.11.035.16.04l-.023.109m9.331-.246a.819.819 0 00.09-.083.976.976 0 00.07-.093.351.351 0 00.06-.215.308.308 0 01-.102.18.517.517 0 01-.172.117l.055.093"/><path fill="#412315" d="M23.336 16.898c.047-.023.082-.05.125-.078a.823.823 0 00.105-.097.48.48 0 00.122-.254.442.442 0 01-.16.215.65.65 0 01-.11.07 1.6 1.6 0 01-.121.043l.039.101m.019.161a.846.846 0 00.172-.075.651.651 0 00.149-.097.612.612 0 00.207-.29.594.594 0 01-.235.247.859.859 0 01-.152.066.637.637 0 01-.16.04l.02.109"/></svg>